<?xml version="1.0" encoding="UTF-8"?>
<svg version="1.1" xmlns="http://www.w3.org/2000/svg" width="600" height="600">
<path d="M0 0 C22.11 0 44.22 0 67 0 C67 2.31 67 4.62 67 7 C71.95 7 76.9 7 82 7 C82 11.95 82 16.9 82 22 C67.15 22 52.3 22 37 22 C37 24.64 37 27.28 37 30 C29.74 30 22.48 30 15 30 C15 32.31 15 34.62 15 37 C7.41 37 -0.18 37 -8 37 C-8 39.64 -8 42.28 -8 45 C-12.95 45 -17.9 45 -23 45 C-23 47.31 -23 49.62 -23 52 C-25.31 52 -27.62 52 -30 52 C-30 54.64 -30 57.28 -30 60 C-32.64 60 -35.28 60 -38 60 C-38 62.31 -38 64.62 -38 67 C-40.31 67 -42.62 67 -45 67 C-45 71.95 -45 76.9 -45 82 C-47.64 82 -50.28 82 -53 82 C-53 89.59 -53 97.18 -53 105 C-48.05 105 -43.1 105 -38 105 C-38 100.05 -38 95.1 -38 90 C-35.36 90 -32.72 90 -30 90 C-30 87.36 -30 84.72 -30 82 C-27.69 82 -25.38 82 -23 82 C-23 79.69 -23 77.38 -23 75 C-18.05 75 -13.1 75 -8 75 C-8 72.36 -8 69.72 -8 67 C-3.05 67 1.9 67 7 67 C7 64.69 7 62.38 7 60 C21.85 60 36.7 60 52 60 C52 62.31 52 64.62 52 67 C59.59 67 67.18 67 75 67 C75 69.64 75 72.28 75 75 C77.31 75 79.62 75 82 75 C82 77.31 82 79.62 82 82 C84.64 82 87.28 82 90 82 C90 84.64 90 87.28 90 90 C92.31 90 94.62 90 97 90 C97 92.31 97 94.62 97 97 C99.64 97 102.28 97 105 97 C105 104.59 105 112.18 105 120 C107.31 120 109.62 120 112 120 C112 129.9 112 139.8 112 150 C114.64 150 117.28 150 120 150 C120 147.36 120 144.72 120 142 C124.95 142 129.9 142 135 142 C135 149.59 135 157.18 135 165 C142.26 165 149.52 165 157 165 C157 162.36 157 159.72 157 157 C159.64 157 162.28 157 165 157 C165 154.69 165 152.38 165 150 C174.9 150 184.8 150 195 150 C195 132.51 195 115.02 195 97 C197.31 97 199.62 97 202 97 C202 92.05 202 87.1 202 82 C204.64 82 207.28 82 210 82 C210 77.05 210 72.1 210 67 C212.31 67 214.62 67 217 67 C217 64.69 217 62.38 217 60 C219.64 60 222.28 60 225 60 C225 57.36 225 54.72 225 52 C227.31 52 229.62 52 232 52 C232 49.69 232 47.38 232 45 C234.64 45 237.28 45 240 45 C240 42.36 240 39.72 240 37 C242.31 37 244.62 37 247 37 C247 34.69 247 32.38 247 30 C249.64 30 252.28 30 255 30 C255 27.36 255 24.72 255 22 C259.95 22 264.9 22 270 22 C270 19.69 270 17.38 270 15 C277.26 15 284.52 15 292 15 C292 12.36 292 9.72 292 7 C301.9 7 311.8 7 322 7 C322 9.64 322 12.28 322 15 C319.69 15 317.38 15 315 15 C315 17.31 315 19.62 315 22 C312.36 22 309.72 22 307 22 C307 24.64 307 27.28 307 30 C304.69 30 302.38 30 300 30 C300 32.31 300 34.62 300 37 C297.36 37 294.72 37 292 37 C292 39.64 292 42.28 292 45 C289.69 45 287.38 45 285 45 C285 47.31 285 49.62 285 52 C282.36 52 279.72 52 277 52 C277 56.95 277 61.9 277 67 C274.69 67 272.38 67 270 67 C270 74.59 270 82.18 270 90 C267.36 90 264.72 90 262 90 C262 102.21 262 114.42 262 127 C257.05 127 252.1 127 247 127 C247 124.69 247 122.38 247 120 C242.05 120 237.1 120 232 120 C232 122.31 232 124.62 232 127 C229.69 127 227.38 127 225 127 C225 129.64 225 132.28 225 135 C222.36 135 219.72 135 217 135 C217 137.31 217 139.62 217 142 C214.69 142 212.38 142 210 142 C210 149.59 210 157.18 210 165 C212.31 165 214.62 165 217 165 C217 167.31 217 169.62 217 172 C219.64 172 222.28 172 225 172 C225 176.95 225 181.9 225 187 C227.31 187 229.62 187 232 187 C232 196.9 232 206.8 232 217 C229.69 217 227.38 217 225 217 C225 229.54 225 242.08 225 255 C229.95 255 234.9 255 240 255 C240 257.31 240 259.62 240 262 C242.31 262 244.62 262 247 262 C247 259.69 247 257.38 247 255 C249.64 255 252.28 255 255 255 C255 252.36 255 249.72 255 247 C257.31 247 259.62 247 262 247 C262 249.64 262 252.28 262 255 C264.64 255 267.28 255 270 255 C270 264.9 270 274.8 270 285 C272.31 285 274.62 285 277 285 C277 299.85 277 314.7 277 330 C279.64 330 282.28 330 285 330 C285 337.26 285 344.52 285 352 C280.05 352 275.1 352 270 352 C270 349.69 270 347.38 270 345 C265.05 345 260.1 345 255 345 C255 347.31 255 349.62 255 352 C252.36 352 249.72 352 247 352 C247 354.64 247 357.28 247 360 C244.69 360 242.38 360 240 360 C240 362.31 240 364.62 240 367 C235.05 367 230.1 367 225 367 C225 359.74 225 352.48 225 345 C220.05 345 215.1 345 210 345 C210 340.05 210 335.1 210 330 C212.31 330 214.62 330 217 330 C217 327.36 217 324.72 217 322 C219.64 322 222.28 322 225 322 C225 314.74 225 307.48 225 300 C222.36 300 219.72 300 217 300 C217 297.36 217 294.72 217 292 C207.1 292 197.2 292 187 292 C187 289.69 187 287.38 187 285 C184.69 285 182.38 285 180 285 C180 277.41 180 269.82 180 262 C175.05 262 170.1 262 165 262 C165 276.85 165 291.7 165 307 C162.36 307 159.72 307 157 307 C157 309.64 157 312.28 157 315 C152.05 315 147.1 315 142 315 C142 317.31 142 319.62 142 322 C137.05 322 132.1 322 127 322 C127 324.64 127 327.28 127 330 C124.69 330 122.38 330 120 330 C120 334.95 120 339.9 120 345 C129.9 345 139.8 345 150 345 C150 349.95 150 354.9 150 360 C147.36 360 144.72 360 142 360 C142 362.31 142 364.62 142 367 C139.69 367 137.38 367 135 367 C135 369.64 135 372.28 135 375 C132.36 375 129.72 375 127 375 C127 377.31 127 379.62 127 382 C122.05 382 117.1 382 112 382 C112 399.49 112 416.98 112 435 C114.64 435 117.28 435 120 435 C120 437.31 120 439.62 120 442 C122.31 442 124.62 442 127 442 C127 451.9 127 461.8 127 472 C119.74 472 112.48 472 105 472 C105 469.69 105 467.38 105 465 C92.46 465 79.92 465 67 465 C67 467.31 67 469.62 67 472 C64.69 472 62.38 472 60 472 C60 474.64 60 477.28 60 480 C57.36 480 54.72 480 52 480 C52 477.36 52 474.72 52 472 C49.69 472 47.38 472 45 472 C45 467.05 45 462.1 45 457 C35.1 457 25.2 457 15 457 C15 459.64 15 462.28 15 465 C10.05 465 5.1 465 0 465 C0 455.1 0 445.2 0 435 C2.31 435 4.62 435 7 435 C7 432.36 7 429.72 7 427 C9.64 427 12.28 427 15 427 C15 424.69 15 422.38 15 420 C22.26 420 29.52 420 37 420 C37 417.36 37 414.72 37 412 C39.64 412 42.28 412 45 412 C45 409.69 45 407.38 45 405 C47.31 405 49.62 405 52 405 C52 402.36 52 399.72 52 397 C54.64 397 57.28 397 60 397 C60 387.1 60 377.2 60 367 C57.36 367 54.72 367 52 367 C52 362.05 52 357.1 52 352 C49.69 352 47.38 352 45 352 C45 356.95 45 361.9 45 367 C42.36 367 39.72 367 37 367 C37 364.69 37 362.38 37 360 C34.69 360 32.38 360 30 360 C30 357.36 30 354.72 30 352 C27.36 352 24.72 352 22 352 C22 349.69 22 347.38 22 345 C19.69 345 17.38 345 15 345 C15 342.36 15 339.72 15 337 C12.36 337 9.72 337 7 337 C7 334.69 7 332.38 7 330 C4.69 330 2.38 330 0 330 C0 327.36 0 324.72 0 322 C-2.64 322 -5.28 322 -8 322 C-8 326.95 -8 331.9 -8 337 C-5.36 337 -2.72 337 0 337 C0 349.54 0 362.08 0 375 C-4.95 375 -9.9 375 -15 375 C-15 372.36 -15 369.72 -15 367 C-19.95 367 -24.9 367 -30 367 C-30 374.59 -30 382.18 -30 390 C-34.95 390 -39.9 390 -45 390 C-45 387.36 -45 384.72 -45 382 C-47.64 382 -50.28 382 -53 382 C-53 379.69 -53 377.38 -53 375 C-55.31 375 -57.62 375 -60 375 C-60 372.36 -60 369.72 -60 367 C-62.64 367 -65.28 367 -68 367 C-68 364.69 -68 362.38 -68 360 C-70.31 360 -72.62 360 -75 360 C-75 352.41 -75 344.82 -75 337 C-72.69 337 -70.38 337 -68 337 C-68 334.69 -68 332.38 -68 330 C-65.36 330 -62.72 330 -60 330 C-60 327.36 -60 324.72 -60 322 C-57.69 322 -55.38 322 -53 322 C-53 317.05 -53 312.1 -53 307 C-50.36 307 -47.72 307 -45 307 C-45 304.69 -45 302.38 -45 300 C-42.69 300 -40.38 300 -38 300 C-38 297.36 -38 294.72 -38 292 C-35.36 292 -32.72 292 -30 292 C-30 289.69 -30 287.38 -30 285 C-27.69 285 -25.38 285 -23 285 C-23 282.36 -23 279.72 -23 277 C-25.31 277 -27.62 277 -30 277 C-30 274.69 -30 272.38 -30 270 C-39.9 270 -49.8 270 -60 270 C-60 265.05 -60 260.1 -60 255 C-57.69 255 -55.38 255 -53 255 C-53 250.05 -53 245.1 -53 240 C-55.31 240 -57.62 240 -60 240 C-60 237.36 -60 234.72 -60 232 C-57.69 232 -55.38 232 -53 232 C-53 229.69 -53 227.38 -53 225 C-57.95 225 -62.9 225 -68 225 C-68 222.36 -68 219.72 -68 217 C-70.31 217 -72.62 217 -75 217 C-75 214.69 -75 212.38 -75 210 C-72.69 210 -70.38 210 -68 210 C-68 207.36 -68 204.72 -68 202 C-63.05 202 -58.1 202 -53 202 C-53 199.69 -53 197.38 -53 195 C-55.31 195 -57.62 195 -60 195 C-60 192.36 -60 189.72 -60 187 C-57.69 187 -55.38 187 -53 187 C-53 184.69 -53 182.38 -53 180 C-50.36 180 -47.72 180 -45 180 C-45 177.36 -45 174.72 -45 172 C-42.69 172 -40.38 172 -38 172 C-38 169.69 -38 167.38 -38 165 C-35.36 165 -32.72 165 -30 165 C-30 162.36 -30 159.72 -30 157 C-32.64 157 -35.28 157 -38 157 C-38 152.05 -38 147.1 -38 142 C-42.95 142 -47.9 142 -53 142 C-53 139.69 -53 137.38 -53 135 C-57.95 135 -62.9 135 -68 135 C-68 139.95 -68 144.9 -68 150 C-72.95 150 -77.9 150 -83 150 C-83 147.36 -83 144.72 -83 142 C-85.31 142 -87.62 142 -90 142 C-90 139.69 -90 137.38 -90 135 C-92.64 135 -95.28 135 -98 135 C-98 120.15 -98 105.3 -98 90 C-95.36 90 -92.72 90 -90 90 C-90 82.41 -90 74.82 -90 67 C-87.69 67 -85.38 67 -83 67 C-83 62.05 -83 57.1 -83 52 C-80.36 52 -77.72 52 -75 52 C-75 49.69 -75 47.38 -75 45 C-72.69 45 -70.38 45 -68 45 C-68 42.36 -68 39.72 -68 37 C-65.36 37 -62.72 37 -60 37 C-60 34.69 -60 32.38 -60 30 C-57.69 30 -55.38 30 -53 30 C-53 27.36 -53 24.72 -53 22 C-48.05 22 -43.1 22 -38 22 C-38 19.69 -38 17.38 -38 15 C-33.05 15 -28.1 15 -23 15 C-23 12.36 -23 9.72 -23 7 C-15.41 7 -7.82 7 0 7 C0 4.69 0 2.38 0 0 Z " fill="#BDBDCD" transform="translate(195,60)"/>
<path d="M0 0 C22.11 0 44.22 0 67 0 C67 2.31 67 4.62 67 7 C71.95 7 76.9 7 82 7 C82 11.95 82 16.9 82 22 C67.15 22 52.3 22 37 22 C37 24.64 37 27.28 37 30 C29.74 30 22.48 30 15 30 C15 32.31 15 34.62 15 37 C7.41 37 -0.18 37 -8 37 C-8 39.64 -8 42.28 -8 45 C-12.95 45 -17.9 45 -23 45 C-23 47.31 -23 49.62 -23 52 C-25.31 52 -27.62 52 -30 52 C-30 54.64 -30 57.28 -30 60 C-32.64 60 -35.28 60 -38 60 C-38 62.31 -38 64.62 -38 67 C-40.31 67 -42.62 67 -45 67 C-45 71.95 -45 76.9 -45 82 C-47.64 82 -50.28 82 -53 82 C-53 89.59 -53 97.18 -53 105 C-48.05 105 -43.1 105 -38 105 C-38 100.05 -38 95.1 -38 90 C-35.36 90 -32.72 90 -30 90 C-30 87.36 -30 84.72 -30 82 C-27.69 82 -25.38 82 -23 82 C-23 79.69 -23 77.38 -23 75 C-18.05 75 -13.1 75 -8 75 C-8 72.36 -8 69.72 -8 67 C-3.05 67 1.9 67 7 67 C7 64.69 7 62.38 7 60 C21.85 60 36.7 60 52 60 C52 62.31 52 64.62 52 67 C59.59 67 67.18 67 75 67 C75 69.64 75 72.28 75 75 C77.31 75 79.62 75 82 75 C82 77.31 82 79.62 82 82 C84.64 82 87.28 82 90 82 C90 84.64 90 87.28 90 90 C92.31 90 94.62 90 97 90 C97 92.31 97 94.62 97 97 C99.64 97 102.28 97 105 97 C105 121.75 105 146.5 105 172 C102.36 172 99.72 172 97 172 C97 179.59 97 187.18 97 195 C94.69 195 92.38 195 90 195 C90 199.95 90 204.9 90 210 C87.36 210 84.72 210 82 210 C82 212.31 82 214.62 82 217 C79.69 217 77.38 217 75 217 C75 219.64 75 222.28 75 225 C72.36 225 69.72 225 67 225 C67 227.31 67 229.62 67 232 C62.05 232 57.1 232 52 232 C52 224.74 52 217.48 52 210 C49.69 210 47.38 210 45 210 C45 212.31 45 214.62 45 217 C37.41 217 29.82 217 22 217 C22 219.64 22 222.28 22 225 C14.74 225 7.48 225 0 225 C0 222.36 0 219.72 0 217 C-2.64 217 -5.28 217 -8 217 C-8 229.54 -8 242.08 -8 255 C-5.36 255 -2.72 255 0 255 C0 250.05 0 245.1 0 240 C2.31 240 4.62 240 7 240 C7 242.31 7 244.62 7 247 C9.64 247 12.28 247 15 247 C15 254.59 15 262.18 15 270 C17.31 270 19.62 270 22 270 C22 267.36 22 264.72 22 262 C24.64 262 27.28 262 30 262 C30 271.9 30 281.8 30 292 C32.31 292 34.62 292 37 292 C37 304.54 37 317.08 37 330 C34.69 330 32.38 330 30 330 C30 334.95 30 339.9 30 345 C25.05 345 20.1 345 15 345 C15 342.36 15 339.72 15 337 C12.36 337 9.72 337 7 337 C7 334.69 7 332.38 7 330 C4.69 330 2.38 330 0 330 C0 327.36 0 324.72 0 322 C-2.64 322 -5.28 322 -8 322 C-8 326.95 -8 331.9 -8 337 C-5.36 337 -2.72 337 0 337 C0 349.54 0 362.08 0 375 C-4.95 375 -9.9 375 -15 375 C-15 372.36 -15 369.72 -15 367 C-19.95 367 -24.9 367 -30 367 C-30 374.59 -30 382.18 -30 390 C-34.95 390 -39.9 390 -45 390 C-45 387.36 -45 384.72 -45 382 C-47.64 382 -50.28 382 -53 382 C-53 379.69 -53 377.38 -53 375 C-55.31 375 -57.62 375 -60 375 C-60 372.36 -60 369.72 -60 367 C-62.64 367 -65.28 367 -68 367 C-68 364.69 -68 362.38 -68 360 C-70.31 360 -72.62 360 -75 360 C-75 352.41 -75 344.82 -75 337 C-72.69 337 -70.38 337 -68 337 C-68 334.69 -68 332.38 -68 330 C-65.36 330 -62.72 330 -60 330 C-60 327.36 -60 324.72 -60 322 C-57.69 322 -55.38 322 -53 322 C-53 317.05 -53 312.1 -53 307 C-50.36 307 -47.72 307 -45 307 C-45 304.69 -45 302.38 -45 300 C-42.69 300 -40.38 300 -38 300 C-38 297.36 -38 294.72 -38 292 C-35.36 292 -32.72 292 -30 292 C-30 289.69 -30 287.38 -30 285 C-27.69 285 -25.38 285 -23 285 C-23 282.36 -23 279.72 -23 277 C-25.31 277 -27.62 277 -30 277 C-30 274.69 -30 272.38 -30 270 C-39.9 270 -49.8 270 -60 270 C-60 265.05 -60 260.1 -60 255 C-57.69 255 -55.38 255 -53 255 C-53 250.05 -53 245.1 -53 240 C-55.31 240 -57.62 240 -60 240 C-60 237.36 -60 234.72 -60 232 C-57.69 232 -55.38 232 -53 232 C-53 229.69 -53 227.38 -53 225 C-57.95 225 -62.9 225 -68 225 C-68 222.36 -68 219.72 -68 217 C-70.31 217 -72.62 217 -75 217 C-75 214.69 -75 212.38 -75 210 C-72.69 210 -70.38 210 -68 210 C-68 207.36 -68 204.72 -68 202 C-63.05 202 -58.1 202 -53 202 C-53 199.69 -53 197.38 -53 195 C-55.31 195 -57.62 195 -60 195 C-60 192.36 -60 189.72 -60 187 C-57.69 187 -55.38 187 -53 187 C-53 184.69 -53 182.38 -53 180 C-50.36 180 -47.72 180 -45 180 C-45 177.36 -45 174.72 -45 172 C-42.69 172 -40.38 172 -38 172 C-38 169.69 -38 167.38 -38 165 C-35.36 165 -32.72 165 -30 165 C-30 162.36 -30 159.72 -30 157 C-32.64 157 -35.28 157 -38 157 C-38 152.05 -38 147.1 -38 142 C-42.95 142 -47.9 142 -53 142 C-53 139.69 -53 137.38 -53 135 C-57.95 135 -62.9 135 -68 135 C-68 139.95 -68 144.9 -68 150 C-72.95 150 -77.9 150 -83 150 C-83 147.36 -83 144.72 -83 142 C-85.31 142 -87.62 142 -90 142 C-90 139.69 -90 137.38 -90 135 C-92.64 135 -95.28 135 -98 135 C-98 120.15 -98 105.3 -98 90 C-95.36 90 -92.72 90 -90 90 C-90 82.41 -90 74.82 -90 67 C-87.69 67 -85.38 67 -83 67 C-83 62.05 -83 57.1 -83 52 C-80.36 52 -77.72 52 -75 52 C-75 49.69 -75 47.38 -75 45 C-72.69 45 -70.38 45 -68 45 C-68 42.36 -68 39.72 -68 37 C-65.36 37 -62.72 37 -60 37 C-60 34.69 -60 32.38 -60 30 C-57.69 30 -55.38 30 -53 30 C-53 27.36 -53 24.72 -53 22 C-48.05 22 -43.1 22 -38 22 C-38 19.69 -38 17.38 -38 15 C-33.05 15 -28.1 15 -23 15 C-23 12.36 -23 9.72 -23 7 C-15.41 7 -7.82 7 0 7 C0 4.69 0 2.38 0 0 Z " fill="#FFFFFF" transform="translate(195,60)"/>
<path d="M0 0 C2.31 0 4.62 0 7 0 C7 9.9 7 19.8 7 30 C4.69 30 2.38 30 0 30 C0 42.54 0 55.08 0 68 C4.95 68 9.9 68 15 68 C15 70.31 15 72.62 15 75 C17.31 75 19.62 75 22 75 C22 72.69 22 70.38 22 68 C24.64 68 27.28 68 30 68 C30 65.36 30 62.72 30 60 C32.31 60 34.62 60 37 60 C37 62.64 37 65.28 37 68 C39.64 68 42.28 68 45 68 C45 77.9 45 87.8 45 98 C47.31 98 49.62 98 52 98 C52 112.85 52 127.7 52 143 C54.64 143 57.28 143 60 143 C60 150.26 60 157.52 60 165 C55.05 165 50.1 165 45 165 C45 162.69 45 160.38 45 158 C40.05 158 35.1 158 30 158 C30 160.31 30 162.62 30 165 C27.36 165 24.72 165 22 165 C22 167.64 22 170.28 22 173 C19.69 173 17.38 173 15 173 C15 175.31 15 177.62 15 180 C10.05 180 5.1 180 0 180 C0 172.74 0 165.48 0 158 C-4.95 158 -9.9 158 -15 158 C-15 153.05 -15 148.1 -15 143 C-12.69 143 -10.38 143 -8 143 C-8 140.36 -8 137.72 -8 135 C-5.36 135 -2.72 135 0 135 C0 127.74 0 120.48 0 113 C-2.64 113 -5.28 113 -8 113 C-8 110.36 -8 107.72 -8 105 C-17.9 105 -27.8 105 -38 105 C-38 102.69 -38 100.38 -38 98 C-40.31 98 -42.62 98 -45 98 C-45 90.41 -45 82.82 -45 75 C-49.95 75 -54.9 75 -60 75 C-60 89.85 -60 104.7 -60 120 C-62.64 120 -65.28 120 -68 120 C-68 122.64 -68 125.28 -68 128 C-72.95 128 -77.9 128 -83 128 C-83 130.31 -83 132.62 -83 135 C-87.95 135 -92.9 135 -98 135 C-98 137.64 -98 140.28 -98 143 C-100.31 143 -102.62 143 -105 143 C-105 147.95 -105 152.9 -105 158 C-95.1 158 -85.2 158 -75 158 C-75 162.95 -75 167.9 -75 173 C-77.64 173 -80.28 173 -83 173 C-83 175.31 -83 177.62 -83 180 C-85.31 180 -87.62 180 -90 180 C-90 182.64 -90 185.28 -90 188 C-92.64 188 -95.28 188 -98 188 C-98 190.31 -98 192.62 -98 195 C-102.95 195 -107.9 195 -113 195 C-113 212.49 -113 229.98 -113 248 C-110.36 248 -107.72 248 -105 248 C-105 250.31 -105 252.62 -105 255 C-102.69 255 -100.38 255 -98 255 C-98 264.9 -98 274.8 -98 285 C-105.26 285 -112.52 285 -120 285 C-120 282.69 -120 280.38 -120 278 C-132.54 278 -145.08 278 -158 278 C-158 280.31 -158 282.62 -158 285 C-160.31 285 -162.62 285 -165 285 C-165 287.64 -165 290.28 -165 293 C-167.64 293 -170.28 293 -173 293 C-173 290.36 -173 287.72 -173 285 C-175.31 285 -177.62 285 -180 285 C-180 280.05 -180 275.1 -180 270 C-189.9 270 -199.8 270 -210 270 C-210 272.64 -210 275.28 -210 278 C-214.95 278 -219.9 278 -225 278 C-225 268.1 -225 258.2 -225 248 C-222.69 248 -220.38 248 -218 248 C-218 245.36 -218 242.72 -218 240 C-215.36 240 -212.72 240 -210 240 C-210 237.69 -210 235.38 -210 233 C-202.74 233 -195.48 233 -188 233 C-188 235.31 -188 237.62 -188 240 C-190.31 240 -192.62 240 -195 240 C-195 247.59 -195 255.18 -195 263 C-190.05 263 -185.1 263 -180 263 C-180 258.05 -180 253.1 -180 248 C-177.69 248 -175.38 248 -173 248 C-173 245.36 -173 242.72 -173 240 C-168.05 240 -163.1 240 -158 240 C-158 242.64 -158 245.28 -158 248 C-155.36 248 -152.72 248 -150 248 C-150 252.95 -150 257.9 -150 263 C-147.69 263 -145.38 263 -143 263 C-143 265.31 -143 267.62 -143 270 C-138.05 270 -133.1 270 -128 270 C-128 250.2 -128 230.4 -128 210 C-130.31 210 -132.62 210 -135 210 C-135 205.05 -135 200.1 -135 195 C-132.69 195 -130.38 195 -128 195 C-128 190.05 -128 185.1 -128 180 C-125.36 180 -122.72 180 -120 180 C-120 170.1 -120 160.2 -120 150 C-122.64 150 -125.28 150 -128 150 C-128 147.69 -128 145.38 -128 143 C-130.31 143 -132.62 143 -135 143 C-135 140.36 -135 137.72 -135 135 C-137.64 135 -140.28 135 -143 135 C-143 147.54 -143 160.08 -143 173 C-145.31 173 -147.62 173 -150 173 C-150 175.31 -150 177.62 -150 180 C-152.64 180 -155.28 180 -158 180 C-158 170.1 -158 160.2 -158 150 C-155.36 150 -152.72 150 -150 150 C-150 142.74 -150 135.48 -150 128 C-147.69 128 -145.38 128 -143 128 C-143 123.05 -143 118.1 -143 113 C-140.36 113 -137.72 113 -135 113 C-135 108.05 -135 103.1 -135 98 C-132.69 98 -130.38 98 -128 98 C-128 93.05 -128 88.1 -128 83 C-125.36 83 -122.72 83 -120 83 C-120 78.05 -120 73.1 -120 68 C-122.64 68 -125.28 68 -128 68 C-128 65.36 -128 62.72 -128 60 C-123.05 60 -118.1 60 -113 60 C-113 64.95 -113 69.9 -113 75 C-110.36 75 -107.72 75 -105 75 C-105 72.69 -105 70.38 -105 68 C-100.05 68 -95.1 68 -90 68 C-90 63.05 -90 58.1 -90 53 C-92.64 53 -95.28 53 -98 53 C-98 50.36 -98 47.72 -98 45 C-100.31 45 -102.62 45 -105 45 C-105 42.69 -105 40.38 -105 38 C-97.74 38 -90.48 38 -83 38 C-83 35.36 -83 32.72 -83 30 C-73.1 30 -63.2 30 -53 30 C-53 32.64 -53 35.28 -53 38 C-48.05 38 -43.1 38 -38 38 C-38 40.31 -38 42.62 -38 45 C-30.41 45 -22.82 45 -15 45 C-15 42.69 -15 40.38 -15 38 C-12.69 38 -10.38 38 -8 38 C-8 28.1 -8 18.2 -8 8 C-5.36 8 -2.72 8 0 8 C0 5.36 0 2.72 0 0 Z " fill="#BDBDCD" transform="translate(420,247)"/>
<path d="M0 0 C2.64 0 5.28 0 8 0 C8 2.64 8 5.28 8 8 C10.31 8 12.62 8 15 8 C15 10.31 15 12.62 15 15 C17.64 15 20.28 15 23 15 C23 17.64 23 20.28 23 23 C35.21 23 47.42 23 60 23 C60 20.36 60 17.72 60 15 C62.64 15 65.28 15 68 15 C68 12.69 68 10.38 68 8 C72.95 8 77.9 8 83 8 C83 10.31 83 12.62 83 15 C85.31 15 87.62 15 90 15 C90 17.64 90 20.28 90 23 C87.69 23 85.38 23 83 23 C83 27.95 83 32.9 83 38 C85.31 38 87.62 38 90 38 C90 35.36 90 32.72 90 30 C94.95 30 99.9 30 105 30 C105 42.54 105 55.08 105 68 C102.69 68 100.38 68 98 68 C98 72.95 98 77.9 98 83 C95.36 83 92.72 83 90 83 C90 78.05 90 73.1 90 68 C87.69 68 85.38 68 83 68 C83 70.31 83 72.62 83 75 C75.41 75 67.82 75 60 75 C60 77.64 60 80.28 60 83 C52.74 83 45.48 83 38 83 C38 80.36 38 77.72 38 75 C35.36 75 32.72 75 30 75 C30 87.54 30 100.08 30 113 C32.64 113 35.28 113 38 113 C38 108.05 38 103.1 38 98 C40.31 98 42.62 98 45 98 C45 100.31 45 102.62 45 105 C47.64 105 50.28 105 53 105 C53 112.59 53 120.18 53 128 C55.31 128 57.62 128 60 128 C60 125.36 60 122.72 60 120 C62.64 120 65.28 120 68 120 C68 129.9 68 139.8 68 150 C70.31 150 72.62 150 75 150 C75 162.54 75 175.08 75 188 C72.69 188 70.38 188 68 188 C68 192.95 68 197.9 68 203 C63.05 203 58.1 203 53 203 C53 200.36 53 197.72 53 195 C50.36 195 47.72 195 45 195 C45 192.69 45 190.38 45 188 C42.69 188 40.38 188 38 188 C38 185.36 38 182.72 38 180 C35.36 180 32.72 180 30 180 C30 184.95 30 189.9 30 195 C32.64 195 35.28 195 38 195 C38 207.54 38 220.08 38 233 C33.05 233 28.1 233 23 233 C23 230.36 23 227.72 23 225 C18.05 225 13.1 225 8 225 C8 232.59 8 240.18 8 248 C3.05 248 -1.9 248 -7 248 C-7 245.36 -7 242.72 -7 240 C-9.64 240 -12.28 240 -15 240 C-15 237.69 -15 235.38 -15 233 C-17.31 233 -19.62 233 -22 233 C-22 230.36 -22 227.72 -22 225 C-24.64 225 -27.28 225 -30 225 C-30 222.69 -30 220.38 -30 218 C-32.31 218 -34.62 218 -37 218 C-37 210.41 -37 202.82 -37 195 C-34.69 195 -32.38 195 -30 195 C-30 192.69 -30 190.38 -30 188 C-27.36 188 -24.72 188 -22 188 C-22 185.36 -22 182.72 -22 180 C-19.69 180 -17.38 180 -15 180 C-15 175.05 -15 170.1 -15 165 C-12.36 165 -9.72 165 -7 165 C-7 162.69 -7 160.38 -7 158 C-4.69 158 -2.38 158 0 158 C0 155.36 0 152.72 0 150 C2.64 150 5.28 150 8 150 C8 147.69 8 145.38 8 143 C10.31 143 12.62 143 15 143 C15 140.36 15 137.72 15 135 C12.69 135 10.38 135 8 135 C8 132.69 8 130.38 8 128 C-1.9 128 -11.8 128 -22 128 C-22 123.05 -22 118.1 -22 113 C-19.69 113 -17.38 113 -15 113 C-15 108.05 -15 103.1 -15 98 C-17.31 98 -19.62 98 -22 98 C-22 95.36 -22 92.72 -22 90 C-19.69 90 -17.38 90 -15 90 C-15 87.69 -15 85.38 -15 83 C-19.95 83 -24.9 83 -30 83 C-30 80.36 -30 77.72 -30 75 C-32.31 75 -34.62 75 -37 75 C-37 72.69 -37 70.38 -37 68 C-34.69 68 -32.38 68 -30 68 C-30 65.36 -30 62.72 -30 60 C-25.05 60 -20.1 60 -15 60 C-15 57.69 -15 55.38 -15 53 C-17.31 53 -19.62 53 -22 53 C-22 50.36 -22 47.72 -22 45 C-19.69 45 -17.38 45 -15 45 C-15 42.69 -15 40.38 -15 38 C-12.36 38 -9.72 38 -7 38 C-7 35.36 -7 32.72 -7 30 C-4.69 30 -2.38 30 0 30 C0 27.69 0 25.38 0 23 C2.64 23 5.28 23 8 23 C8 20.36 8 17.72 8 15 C5.36 15 2.72 15 0 15 C0 10.05 0 5.1 0 0 Z " fill="#FBFBFD" transform="translate(157,202)"/>
<path d="M0 0 C22.11 0 44.22 0 67 0 C67 2.31 67 4.62 67 7 C71.95 7 76.9 7 82 7 C82 11.95 82 16.9 82 22 C67.15 22 52.3 22 37 22 C37 24.64 37 27.28 37 30 C29.74 30 22.48 30 15 30 C15 32.31 15 34.62 15 37 C7.41 37 -0.18 37 -8 37 C-8 39.64 -8 42.28 -8 45 C-12.95 45 -17.9 45 -23 45 C-23 47.31 -23 49.62 -23 52 C-25.31 52 -27.62 52 -30 52 C-30 54.64 -30 57.28 -30 60 C-32.64 60 -35.28 60 -38 60 C-38 62.31 -38 64.62 -38 67 C-40.31 67 -42.62 67 -45 67 C-45 71.95 -45 76.9 -45 82 C-47.64 82 -50.28 82 -53 82 C-53 89.59 -53 97.18 -53 105 C-48.05 105 -43.1 105 -38 105 C-38 117.21 -38 129.42 -38 142 C-42.95 142 -47.9 142 -53 142 C-53 139.69 -53 137.38 -53 135 C-57.95 135 -62.9 135 -68 135 C-68 139.95 -68 144.9 -68 150 C-72.95 150 -77.9 150 -83 150 C-83 147.36 -83 144.72 -83 142 C-85.31 142 -87.62 142 -90 142 C-90 139.69 -90 137.38 -90 135 C-92.64 135 -95.28 135 -98 135 C-98 120.15 -98 105.3 -98 90 C-95.36 90 -92.72 90 -90 90 C-90 82.41 -90 74.82 -90 67 C-87.69 67 -85.38 67 -83 67 C-83 62.05 -83 57.1 -83 52 C-80.36 52 -77.72 52 -75 52 C-75 49.69 -75 47.38 -75 45 C-72.69 45 -70.38 45 -68 45 C-68 42.36 -68 39.72 -68 37 C-65.36 37 -62.72 37 -60 37 C-60 34.69 -60 32.38 -60 30 C-57.69 30 -55.38 30 -53 30 C-53 27.36 -53 24.72 -53 22 C-48.05 22 -43.1 22 -38 22 C-38 19.69 -38 17.38 -38 15 C-33.05 15 -28.1 15 -23 15 C-23 12.36 -23 9.72 -23 7 C-15.41 7 -7.82 7 0 7 C0 4.69 0 2.38 0 0 Z " fill="#738383" transform="translate(195,60)"/>
<path d="M0 0 C9.9 0 19.8 0 30 0 C30 2.64 30 5.28 30 8 C27.69 8 25.38 8 23 8 C23 10.31 23 12.62 23 15 C20.36 15 17.72 15 15 15 C15 17.64 15 20.28 15 23 C12.69 23 10.38 23 8 23 C8 25.31 8 27.62 8 30 C5.36 30 2.72 30 0 30 C0 32.64 0 35.28 0 38 C-2.31 38 -4.62 38 -7 38 C-7 40.31 -7 42.62 -7 45 C-9.64 45 -12.28 45 -15 45 C-15 49.95 -15 54.9 -15 60 C-17.31 60 -19.62 60 -22 60 C-22 67.59 -22 75.18 -22 83 C-24.64 83 -27.28 83 -30 83 C-30 95.21 -30 107.42 -30 120 C-34.95 120 -39.9 120 -45 120 C-45 117.69 -45 115.38 -45 113 C-49.95 113 -54.9 113 -60 113 C-60 115.31 -60 117.62 -60 120 C-62.31 120 -64.62 120 -67 120 C-67 122.64 -67 125.28 -67 128 C-69.64 128 -72.28 128 -75 128 C-75 130.31 -75 132.62 -75 135 C-77.31 135 -79.62 135 -82 135 C-82 142.59 -82 150.18 -82 158 C-86.95 158 -91.9 158 -97 158 C-97 155.36 -97 152.72 -97 150 C-106.9 150 -116.8 150 -127 150 C-127 147.69 -127 145.38 -127 143 C-117.1 143 -107.2 143 -97 143 C-97 125.51 -97 108.02 -97 90 C-94.69 90 -92.38 90 -90 90 C-90 85.05 -90 80.1 -90 75 C-87.36 75 -84.72 75 -82 75 C-82 70.05 -82 65.1 -82 60 C-79.69 60 -77.38 60 -75 60 C-75 57.69 -75 55.38 -75 53 C-72.36 53 -69.72 53 -67 53 C-67 50.36 -67 47.72 -67 45 C-64.69 45 -62.38 45 -60 45 C-60 42.69 -60 40.38 -60 38 C-57.36 38 -54.72 38 -52 38 C-52 35.36 -52 32.72 -52 30 C-49.69 30 -47.38 30 -45 30 C-45 27.69 -45 25.38 -45 23 C-42.36 23 -39.72 23 -37 23 C-37 20.36 -37 17.72 -37 15 C-32.05 15 -27.1 15 -22 15 C-22 12.69 -22 10.38 -22 8 C-14.74 8 -7.48 8 0 8 C0 5.36 0 2.72 0 0 Z " fill="#738383" transform="translate(487,67)"/>
<path d="M0 0 C2.64 0 5.28 0 8 0 C8 2.64 8 5.28 8 8 C10.31 8 12.62 8 15 8 C15 10.31 15 12.62 15 15 C17.64 15 20.28 15 23 15 C23 17.64 23 20.28 23 23 C35.21 23 47.42 23 60 23 C60 20.36 60 17.72 60 15 C62.64 15 65.28 15 68 15 C68 12.69 68 10.38 68 8 C72.95 8 77.9 8 83 8 C83 10.31 83 12.62 83 15 C85.31 15 87.62 15 90 15 C90 17.64 90 20.28 90 23 C87.69 23 85.38 23 83 23 C83 27.95 83 32.9 83 38 C85.31 38 87.62 38 90 38 C90 35.36 90 32.72 90 30 C94.95 30 99.9 30 105 30 C105 42.54 105 55.08 105 68 C102.69 68 100.38 68 98 68 C98 72.95 98 77.9 98 83 C95.36 83 92.72 83 90 83 C90 78.05 90 73.1 90 68 C87.69 68 85.38 68 83 68 C83 70.31 83 72.62 83 75 C75.41 75 67.82 75 60 75 C60 77.64 60 80.28 60 83 C52.74 83 45.48 83 38 83 C38 80.36 38 77.72 38 75 C33.05 75 28.1 75 23 75 C23 72.69 23 70.38 23 68 C20.36 68 17.72 68 15 68 C15 65.36 15 62.72 15 60 C12.69 60 10.38 60 8 60 C8 57.69 8 55.38 8 53 C5.36 53 2.72 53 0 53 C0 43.1 0 33.2 0 23 C2.64 23 5.28 23 8 23 C8 20.36 8 17.72 8 15 C5.36 15 2.72 15 0 15 C0 10.05 0 5.1 0 0 Z " fill="#738383" transform="translate(157,202)"/>
<path d="M0 0 C2.31 0 4.62 0 7 0 C7 2.64 7 5.28 7 8 C9.64 8 12.28 8 15 8 C15 17.9 15 27.8 15 38 C17.31 38 19.62 38 22 38 C22 52.85 22 67.7 22 83 C24.64 83 27.28 83 30 83 C30 90.26 30 97.52 30 105 C25.05 105 20.1 105 15 105 C15 102.69 15 100.38 15 98 C10.05 98 5.1 98 0 98 C0 100.31 0 102.62 0 105 C-2.64 105 -5.28 105 -8 105 C-8 107.64 -8 110.28 -8 113 C-10.31 113 -12.62 113 -15 113 C-15 115.31 -15 117.62 -15 120 C-19.95 120 -24.9 120 -30 120 C-30 112.74 -30 105.48 -30 98 C-34.95 98 -39.9 98 -45 98 C-45 93.05 -45 88.1 -45 83 C-42.69 83 -40.38 83 -38 83 C-38 80.36 -38 77.72 -38 75 C-35.36 75 -32.72 75 -30 75 C-30 67.74 -30 60.48 -30 53 C-32.64 53 -35.28 53 -38 53 C-38 50.36 -38 47.72 -38 45 C-47.9 45 -57.8 45 -68 45 C-68 42.69 -68 40.38 -68 38 C-55.46 38 -42.92 38 -30 38 C-30 35.36 -30 32.72 -30 30 C-25.05 30 -20.1 30 -15 30 C-15 25.05 -15 20.1 -15 15 C-12.69 15 -10.38 15 -8 15 C-8 12.69 -8 10.38 -8 8 C-5.36 8 -2.72 8 0 8 C0 5.36 0 2.72 0 0 Z " fill="#9494AC" transform="translate(450,307)"/>
<path d="M0 0 C2.64 0 5.28 0 8 0 C8 4.95 8 9.9 8 15 C12.95 15 17.9 15 23 15 C23 22.59 23 30.18 23 38 C25.31 38 27.62 38 30 38 C30 42.95 30 47.9 30 53 C27.69 53 25.38 53 23 53 C23 50.36 23 47.72 23 45 C20.36 45 17.72 45 15 45 C15 49.95 15 54.9 15 60 C17.64 60 20.28 60 23 60 C23 72.54 23 85.08 23 98 C18.05 98 13.1 98 8 98 C8 95.36 8 92.72 8 90 C3.05 90 -1.9 90 -7 90 C-7 97.59 -7 105.18 -7 113 C-11.95 113 -16.9 113 -22 113 C-22 110.36 -22 107.72 -22 105 C-24.64 105 -27.28 105 -30 105 C-30 102.69 -30 100.38 -30 98 C-32.31 98 -34.62 98 -37 98 C-37 95.36 -37 92.72 -37 90 C-39.64 90 -42.28 90 -45 90 C-45 87.69 -45 85.38 -45 83 C-47.31 83 -49.62 83 -52 83 C-52 75.41 -52 67.82 -52 60 C-49.69 60 -47.38 60 -45 60 C-45 57.69 -45 55.38 -45 53 C-42.36 53 -39.72 53 -37 53 C-37 50.36 -37 47.72 -37 45 C-34.69 45 -32.38 45 -30 45 C-30 40.05 -30 35.1 -30 30 C-27.36 30 -24.72 30 -22 30 C-22 27.69 -22 25.38 -22 23 C-19.69 23 -17.38 23 -15 23 C-15 20.36 -15 17.72 -15 15 C-12.36 15 -9.72 15 -7 15 C-7 12.69 -7 10.38 -7 8 C-4.69 8 -2.38 8 0 8 C0 5.36 0 2.72 0 0 Z " fill="#FFFFFF" transform="translate(172,337)"/>
<path d="M0 0 C4.95 0 9.9 0 15 0 C15 2.64 15 5.28 15 8 C17.31 8 19.62 8 22 8 C22 10.31 22 12.62 22 15 C24.64 15 27.28 15 30 15 C30 17.64 30 20.28 30 23 C32.31 23 34.62 23 37 23 C37 25.31 37 27.62 37 30 C39.64 30 42.28 30 45 30 C45 54.75 45 79.5 45 105 C42.36 105 39.72 105 37 105 C37 112.59 37 120.18 37 128 C34.69 128 32.38 128 30 128 C30 132.95 30 137.9 30 143 C27.36 143 24.72 143 22 143 C22 145.31 22 147.62 22 150 C19.69 150 17.38 150 15 150 C15 152.64 15 155.28 15 158 C12.36 158 9.72 158 7 158 C7 160.31 7 162.62 7 165 C2.05 165 -2.9 165 -8 165 C-8 162.69 -8 160.38 -8 158 C-5.36 158 -2.72 158 0 158 C0 153.05 0 148.1 0 143 C2.31 143 4.62 143 7 143 C7 130.46 7 117.92 7 105 C2.05 105 -2.9 105 -8 105 C-8 107.64 -8 110.28 -8 113 C-10.31 113 -12.62 113 -15 113 C-15 108.05 -15 103.1 -15 98 C-12.69 98 -10.38 98 -8 98 C-8 95.36 -8 92.72 -8 90 C-10.31 90 -12.62 90 -15 90 C-15 87.69 -15 85.38 -15 83 C-19.95 83 -24.9 83 -30 83 C-30 80.36 -30 77.72 -30 75 C-22.74 75 -15.48 75 -8 75 C-8 77.64 -8 80.28 -8 83 C-3.05 83 1.9 83 7 83 C7 80.36 7 77.72 7 75 C9.64 75 12.28 75 15 75 C15 72.69 15 70.38 15 68 C17.31 68 19.62 68 22 68 C22 65.36 22 62.72 22 60 C24.64 60 27.28 60 30 60 C30 52.74 30 45.48 30 38 C27.36 38 24.72 38 22 38 C22 33.05 22 28.1 22 23 C17.05 23 12.1 23 7 23 C7 20.36 7 17.72 7 15 C4.69 15 2.38 15 0 15 C0 10.05 0 5.1 0 0 Z " fill="#DEDEEE" transform="translate(255,127)"/>
<path d="M0 0 C12.54 0 25.08 0 38 0 C38 2.64 38 5.28 38 8 C45.26 8 52.52 8 60 8 C60 10.31 60 12.62 60 15 C62.64 15 65.28 15 68 15 C68 22.59 68 30.18 68 38 C65.36 38 62.72 38 60 38 C60 47.9 60 57.8 60 68 C57.69 68 55.38 68 53 68 C53 70.31 53 72.62 53 75 C45.41 75 37.82 75 30 75 C30 72.69 30 70.38 30 68 C25.05 68 20.1 68 15 68 C15 65.36 15 62.72 15 60 C5.1 60 -4.8 60 -15 60 C-15 57.69 -15 55.38 -15 53 C-12.36 53 -9.72 53 -7 53 C-7 48.05 -7 43.1 -7 38 C-9.64 38 -12.28 38 -15 38 C-15 33.05 -15 28.1 -15 23 C-12.36 23 -9.72 23 -7 23 C-7 20.36 -7 17.72 -7 15 C-4.69 15 -2.38 15 0 15 C0 10.05 0 5.1 0 0 Z " fill="#FFFFFF" transform="translate(352,217)"/>
<path d="M0 0 C2.64 0 5.28 0 8 0 C8 2.64 8 5.28 8 8 C10.31 8 12.62 8 15 8 C15 10.31 15 12.62 15 15 C17.64 15 20.28 15 23 15 C23 24.9 23 34.8 23 45 C20.36 45 17.72 45 15 45 C15 49.95 15 54.9 15 60 C12.69 60 10.38 60 8 60 C8 64.95 8 69.9 8 75 C10.31 75 12.62 75 15 75 C15 94.8 15 114.6 15 135 C10.05 135 5.1 135 0 135 C0 132.69 0 130.38 0 128 C-2.31 128 -4.62 128 -7 128 C-7 123.05 -7 118.1 -7 113 C-9.64 113 -12.28 113 -15 113 C-15 110.36 -15 107.72 -15 105 C-19.95 105 -24.9 105 -30 105 C-30 107.64 -30 110.28 -30 113 C-32.31 113 -34.62 113 -37 113 C-37 117.95 -37 122.9 -37 128 C-41.95 128 -46.9 128 -52 128 C-52 120.41 -52 112.82 -52 105 C-49.69 105 -47.38 105 -45 105 C-45 100.05 -45 95.1 -45 90 C-42.36 90 -39.72 90 -37 90 C-37 87.69 -37 85.38 -37 83 C-34.69 83 -32.38 83 -30 83 C-30 80.36 -30 77.72 -30 75 C-25.05 75 -20.1 75 -15 75 C-15 70.05 -15 65.1 -15 60 C-12.36 60 -9.72 60 -7 60 C-7 52.74 -7 45.48 -7 38 C-4.69 38 -2.38 38 0 38 C0 25.46 0 12.92 0 0 Z " fill="#FFFFFF" transform="translate(277,382)"/>
<path d="M0 0 C2.64 0 5.28 0 8 0 C8 2.31 8 4.62 8 7 C12.95 7 17.9 7 23 7 C23 9.64 23 12.28 23 15 C25.31 15 27.62 15 30 15 C30 19.95 30 24.9 30 30 C27.69 30 25.38 30 23 30 C23 32.31 23 34.62 23 37 C25.31 37 27.62 37 30 37 C30 44.59 30 52.18 30 60 C25.05 60 20.1 60 15 60 C15 62.31 15 64.62 15 67 C12.69 67 10.38 67 8 67 C8 69.64 8 72.28 8 75 C5.36 75 2.72 75 0 75 C0 77.31 0 79.62 0 82 C-2.31 82 -4.62 82 -7 82 C-7 89.59 -7 97.18 -7 105 C-11.95 105 -16.9 105 -22 105 C-22 102.36 -22 99.72 -22 97 C-31.9 97 -41.8 97 -52 97 C-52 94.69 -52 92.38 -52 90 C-42.1 90 -32.2 90 -22 90 C-22 72.51 -22 55.02 -22 37 C-19.69 37 -17.38 37 -15 37 C-15 32.05 -15 27.1 -15 22 C-12.36 22 -9.72 22 -7 22 C-7 17.05 -7 12.1 -7 7 C-4.69 7 -2.38 7 0 7 C0 4.69 0 2.38 0 0 Z " fill="#4A5A5A" transform="translate(412,120)"/>
<path d="M0 0 C7.26 0 14.52 0 22 0 C22 2.31 22 4.62 22 7 C19.69 7 17.38 7 15 7 C15 14.59 15 22.18 15 30 C19.95 30 24.9 30 30 30 C30 25.05 30 20.1 30 15 C32.31 15 34.62 15 37 15 C37 12.36 37 9.72 37 7 C41.95 7 46.9 7 52 7 C52 9.64 52 12.28 52 15 C54.64 15 57.28 15 60 15 C60 19.95 60 24.9 60 30 C62.31 30 64.62 30 67 30 C67 32.31 67 34.62 67 37 C71.95 37 76.9 37 82 37 C82 29.74 82 22.48 82 15 C84.64 15 87.28 15 90 15 C90 22.26 90 29.52 90 37 C94.95 37 99.9 37 105 37 C105 32.05 105 27.1 105 22 C107.31 22 109.62 22 112 22 C112 31.9 112 41.8 112 52 C104.74 52 97.48 52 90 52 C90 49.69 90 47.38 90 45 C77.46 45 64.92 45 52 45 C52 47.31 52 49.62 52 52 C49.69 52 47.38 52 45 52 C45 54.64 45 57.28 45 60 C42.36 60 39.72 60 37 60 C37 57.36 37 54.72 37 52 C34.69 52 32.38 52 30 52 C30 47.05 30 42.1 30 37 C20.1 37 10.2 37 0 37 C0 39.64 0 42.28 0 45 C-4.95 45 -9.9 45 -15 45 C-15 35.1 -15 25.2 -15 15 C-12.69 15 -10.38 15 -8 15 C-8 12.36 -8 9.72 -8 7 C-5.36 7 -2.72 7 0 7 C0 4.69 0 2.38 0 0 Z " fill="#526262" transform="translate(210,480)"/>
<path d="M0 0 C22.11 0 44.22 0 67 0 C67 2.31 67 4.62 67 7 C71.95 7 76.9 7 82 7 C82 11.95 82 16.9 82 22 C67.15 22 52.3 22 37 22 C37 24.64 37 27.28 37 30 C29.74 30 22.48 30 15 30 C15 32.31 15 34.62 15 37 C7.41 37 -0.18 37 -8 37 C-8 39.64 -8 42.28 -8 45 C-12.95 45 -17.9 45 -23 45 C-23 47.31 -23 49.62 -23 52 C-25.31 52 -27.62 52 -30 52 C-30 47.05 -30 42.1 -30 37 C-27.69 37 -25.38 37 -23 37 C-23 34.69 -23 32.38 -23 30 C-20.36 30 -17.72 30 -15 30 C-15 27.36 -15 24.72 -15 22 C-12.69 22 -10.38 22 -8 22 C-8 19.69 -8 17.38 -8 15 C-12.95 15 -17.9 15 -23 15 C-23 12.36 -23 9.72 -23 7 C-15.41 7 -7.82 7 0 7 C0 4.69 0 2.38 0 0 Z " fill="#526262" transform="translate(195,60)"/>
<path d="M0 0 C2.31 0 4.62 0 7 0 C7 9.9 7 19.8 7 30 C9.64 30 12.28 30 15 30 C15 20.1 15 10.2 15 0 C24.9 0 34.8 0 45 0 C45 4.95 45 9.9 45 15 C42.36 15 39.72 15 37 15 C37 17.31 37 19.62 37 22 C34.69 22 32.38 22 30 22 C30 24.64 30 27.28 30 30 C27.36 30 24.72 30 22 30 C22 32.31 22 34.62 22 37 C17.05 37 12.1 37 7 37 C7 54.49 7 71.98 7 90 C9.64 90 12.28 90 15 90 C15 97.26 15 104.52 15 112 C10.05 112 5.1 112 0 112 C0 104.74 0 97.48 0 90 C-2.64 90 -5.28 90 -8 90 C-8 77.46 -8 64.92 -8 52 C-10.31 52 -12.62 52 -15 52 C-15 47.05 -15 42.1 -15 37 C-12.69 37 -10.38 37 -8 37 C-8 32.05 -8 27.1 -8 22 C-5.36 22 -2.72 22 0 22 C0 14.74 0 7.48 0 0 Z " fill="#DEDEEE" transform="translate(300,405)"/>
<path d="M0 0 C2.31 0 4.62 0 7 0 C7 4.95 7 9.9 7 15 C9.64 15 12.28 15 15 15 C15 27.54 15 40.08 15 53 C10.05 53 5.1 53 0 53 C0 50.36 0 47.72 0 45 C-4.95 45 -9.9 45 -15 45 C-15 52.59 -15 60.18 -15 68 C-19.95 68 -24.9 68 -30 68 C-30 65.36 -30 62.72 -30 60 C-32.64 60 -35.28 60 -38 60 C-38 57.69 -38 55.38 -38 53 C-40.31 53 -42.62 53 -45 53 C-45 50.36 -45 47.72 -45 45 C-47.64 45 -50.28 45 -53 45 C-53 42.69 -53 40.38 -53 38 C-55.31 38 -57.62 38 -60 38 C-60 30.41 -60 22.82 -60 15 C-57.69 15 -55.38 15 -53 15 C-53 12.69 -53 10.38 -53 8 C-50.36 8 -47.72 8 -45 8 C-45 15.26 -45 22.52 -45 30 C-37.74 30 -30.48 30 -23 30 C-23 32.64 -23 35.28 -23 38 C-18.05 38 -13.1 38 -8 38 C-8 35.36 -8 32.72 -8 30 C-5.36 30 -2.72 30 0 30 C0 20.1 0 10.2 0 0 Z " fill="#526262" transform="translate(180,382)"/>
<path d="M0 0 C4.95 0 9.9 0 15 0 C15 7.59 15 15.18 15 23 C22.26 23 29.52 23 37 23 C37 25.31 37 27.62 37 30 C34.69 30 32.38 30 30 30 C30 32.64 30 35.28 30 38 C27.36 38 24.72 38 22 38 C22 42.95 22 47.9 22 53 C24.64 53 27.28 53 30 53 C30 57.95 30 62.9 30 68 C27.36 68 24.72 68 22 68 C22 72.95 22 77.9 22 83 C17.05 83 12.1 83 7 83 C7 80.36 7 77.72 7 75 C4.69 75 2.38 75 0 75 C0 72.69 0 70.38 0 68 C-2.64 68 -5.28 68 -8 68 C-8 63.05 -8 58.1 -8 53 C-3.05 53 1.9 53 7 53 C7 50.36 7 47.72 7 45 C4.69 45 2.38 45 0 45 C0 42.69 0 40.38 0 38 C-2.64 38 -5.28 38 -8 38 C-8 30.41 -8 22.82 -8 15 C-5.36 15 -2.72 15 0 15 C0 10.05 0 5.1 0 0 Z " fill="#DEDEEE" transform="translate(315,202)"/>
<path d="M0 0 C2.31 0 4.62 0 7 0 C7 7.59 7 15.18 7 23 C9.64 23 12.28 23 15 23 C15 30.26 15 37.52 15 45 C10.05 45 5.1 45 0 45 C0 42.69 0 40.38 0 38 C-4.95 38 -9.9 38 -15 38 C-15 40.31 -15 42.62 -15 45 C-17.64 45 -20.28 45 -23 45 C-23 47.64 -23 50.28 -23 53 C-25.31 53 -27.62 53 -30 53 C-30 55.31 -30 57.62 -30 60 C-34.95 60 -39.9 60 -45 60 C-45 52.74 -45 45.48 -45 38 C-49.95 38 -54.9 38 -60 38 C-60 33.05 -60 28.1 -60 23 C-57.69 23 -55.38 23 -53 23 C-53 20.36 -53 17.72 -53 15 C-50.36 15 -47.72 15 -45 15 C-45 19.95 -45 24.9 -45 30 C-42.69 30 -40.38 30 -38 30 C-38 27.69 -38 25.38 -38 23 C-30.41 23 -22.82 23 -15 23 C-15 25.31 -15 27.62 -15 30 C-12.69 30 -10.38 30 -8 30 C-8 25.05 -8 20.1 -8 15 C-5.36 15 -2.72 15 0 15 C0 10.05 0 5.1 0 0 Z " fill="#293939" transform="translate(465,367)"/>
<path d="M0 0 C2.64 0 5.28 0 8 0 C8 2.64 8 5.28 8 8 C10.31 8 12.62 8 15 8 C15 10.31 15 12.62 15 15 C17.64 15 20.28 15 23 15 C23 17.64 23 20.28 23 23 C35.21 23 47.42 23 60 23 C60 20.36 60 17.72 60 15 C62.64 15 65.28 15 68 15 C68 12.69 68 10.38 68 8 C72.95 8 77.9 8 83 8 C83 10.31 83 12.62 83 15 C85.31 15 87.62 15 90 15 C90 17.64 90 20.28 90 23 C87.69 23 85.38 23 83 23 C83 27.95 83 32.9 83 38 C75.41 38 67.82 38 60 38 C60 35.36 60 32.72 60 30 C50.1 30 40.2 30 30 30 C30 32.64 30 35.28 30 38 C25.05 38 20.1 38 15 38 C15 35.36 15 32.72 15 30 C12.69 30 10.38 30 8 30 C8 34.95 8 39.9 8 45 C10.31 45 12.62 45 15 45 C15 49.95 15 54.9 15 60 C12.69 60 10.38 60 8 60 C8 57.69 8 55.38 8 53 C5.36 53 2.72 53 0 53 C0 43.1 0 33.2 0 23 C2.64 23 5.28 23 8 23 C8 20.36 8 17.72 8 15 C5.36 15 2.72 15 0 15 C0 10.05 0 5.1 0 0 Z " fill="#738383" transform="translate(157,202)"/>
<path d="M0 0 C2.64 0 5.28 0 8 0 C8 14.85 8 29.7 8 45 C5.36 45 2.72 45 0 45 C0 47.64 0 50.28 0 53 C-4.95 53 -9.9 53 -15 53 C-15 55.31 -15 57.62 -15 60 C-19.95 60 -24.9 60 -30 60 C-30 62.64 -30 65.28 -30 68 C-34.95 68 -39.9 68 -45 68 C-45 60.41 -45 52.82 -45 45 C-42.36 45 -39.72 45 -37 45 C-37 47.64 -37 50.28 -37 53 C-34.69 53 -32.38 53 -30 53 C-30 50.36 -30 47.72 -30 45 C-27.36 45 -24.72 45 -22 45 C-22 40.05 -22 35.1 -22 30 C-19.69 30 -17.38 30 -15 30 C-15 25.05 -15 20.1 -15 15 C-12.36 15 -9.72 15 -7 15 C-7 12.69 -7 10.38 -7 8 C-4.69 8 -2.38 8 0 8 C0 5.36 0 2.72 0 0 Z " fill="#9494AC" transform="translate(352,322)"/>
<path d="M0 0 C2.64 0 5.28 0 8 0 C8 4.95 8 9.9 8 15 C10.31 15 12.62 15 15 15 C15 17.31 15 19.62 15 22 C19.95 22 24.9 22 30 22 C30 14.74 30 7.48 30 0 C32.64 0 35.28 0 38 0 C38 7.26 38 14.52 38 22 C42.95 22 47.9 22 53 22 C53 17.05 53 12.1 53 7 C55.31 7 57.62 7 60 7 C60 16.9 60 26.8 60 37 C52.74 37 45.48 37 38 37 C38 34.69 38 32.38 38 30 C25.46 30 12.92 30 0 30 C0 32.31 0 34.62 0 37 C-2.31 37 -4.62 37 -7 37 C-7 27.1 -7 17.2 -7 7 C-4.69 7 -2.38 7 0 7 C0 4.69 0 2.38 0 0 Z " fill="#101010" transform="translate(262,495)"/>
<path d="M0 0 C4.95 0 9.9 0 15 0 C15 2.64 15 5.28 15 8 C17.64 8 20.28 8 23 8 C23 20.21 23 32.42 23 45 C20.36 45 17.72 45 15 45 C15 47.64 15 50.28 15 53 C10.05 53 5.1 53 0 53 C0 50.36 0 47.72 0 45 C-2.31 45 -4.62 45 -7 45 C-7 35.1 -7 25.2 -7 15 C-4.69 15 -2.38 15 0 15 C0 10.05 0 5.1 0 0 Z " fill="#526262" transform="translate(187,157)"/>
<path d="M0 0 C2.31 0 4.62 0 7 0 C7 7.59 7 15.18 7 23 C11.95 23 16.9 23 22 23 C22 35.21 22 47.42 22 60 C17.05 60 12.1 60 7 60 C7 57.69 7 55.38 7 53 C2.05 53 -2.9 53 -8 53 C-8 48.05 -8 43.1 -8 38 C-5.36 38 -2.72 38 0 38 C0 25.46 0 12.92 0 0 Z " fill="#526262" transform="translate(135,142)"/>
<path d="M0 0 C4.95 0 9.9 0 15 0 C15 7.26 15 14.52 15 22 C12.69 22 10.38 22 8 22 C8 26.95 8 31.9 8 37 C5.36 37 2.72 37 0 37 C0 41.95 0 46.9 0 52 C-2.31 52 -4.62 52 -7 52 C-7 49.69 -7 47.38 -7 45 C-11.95 45 -16.9 45 -22 45 C-22 42.36 -22 39.72 -22 37 C-19.69 37 -17.38 37 -15 37 C-15 34.69 -15 32.38 -15 30 C-12.36 30 -9.72 30 -7 30 C-7 22.41 -7 14.82 -7 7 C-4.69 7 -2.38 7 0 7 C0 4.69 0 2.38 0 0 Z " fill="#BDBDCD" transform="translate(457,345)"/>
<path d="M0 0 C2.64 0 5.28 0 8 0 C8 7.26 8 14.52 8 22 C15.26 22 22.52 22 30 22 C30 26.95 30 31.9 30 37 C27.69 37 25.38 37 23 37 C23 39.64 23 42.28 23 45 C18.05 45 13.1 45 8 45 C8 42.36 8 39.72 8 37 C5.36 37 2.72 37 0 37 C0 34.69 0 32.38 0 30 C-2.31 30 -4.62 30 -7 30 C-7 22.41 -7 14.82 -7 7 C-4.69 7 -2.38 7 0 7 C0 4.69 0 2.38 0 0 Z " fill="#738383" transform="translate(127,390)"/>
<path d="M0 0 C4.95 0 9.9 0 15 0 C15 12.54 15 25.08 15 38 C12.69 38 10.38 38 8 38 C8 42.95 8 47.9 8 53 C5.36 53 2.72 53 0 53 C0 48.05 0 43.1 0 38 C-2.31 38 -4.62 38 -7 38 C-7 40.31 -7 42.62 -7 45 C-11.95 45 -16.9 45 -22 45 C-22 42.69 -22 40.38 -22 38 C-19.69 38 -17.38 38 -15 38 C-15 35.36 -15 32.72 -15 30 C-10.05 30 -5.1 30 0 30 C0 25.05 0 20.1 0 15 C2.64 15 5.28 15 8 15 C8 12.69 8 10.38 8 8 C5.36 8 2.72 8 0 8 C0 5.36 0 2.72 0 0 Z " fill="#626283" transform="translate(247,232)"/>
<path d="M0 0 C2.64 0 5.28 0 8 0 C8 2.64 8 5.28 8 8 C10.31 8 12.62 8 15 8 C15 10.31 15 12.62 15 15 C17.64 15 20.28 15 23 15 C23 19.95 23 24.9 23 30 C25.31 30 27.62 30 30 30 C30 32.64 30 35.28 30 38 C25.05 38 20.1 38 15 38 C15 35.36 15 32.72 15 30 C12.69 30 10.38 30 8 30 C8 34.95 8 39.9 8 45 C10.31 45 12.62 45 15 45 C15 49.95 15 54.9 15 60 C12.69 60 10.38 60 8 60 C8 57.69 8 55.38 8 53 C5.36 53 2.72 53 0 53 C0 43.1 0 33.2 0 23 C2.64 23 5.28 23 8 23 C8 20.36 8 17.72 8 15 C5.36 15 2.72 15 0 15 C0 10.05 0 5.1 0 0 Z " fill="#7B2931" transform="translate(157,202)"/>
<path d="M0 0 C9.9 0 19.8 0 30 0 C30 4.95 30 9.9 30 15 C27.36 15 24.72 15 22 15 C22 17.31 22 19.62 22 22 C19.69 22 17.38 22 15 22 C15 24.64 15 27.28 15 30 C12.36 30 9.72 30 7 30 C7 32.31 7 34.62 7 37 C2.05 37 -2.9 37 -8 37 C-8 34.69 -8 32.38 -8 30 C-5.36 30 -2.72 30 0 30 C0 20.1 0 10.2 0 0 Z " fill="#526262" transform="translate(315,405)"/>
<path d="M0 0 C4.95 0 9.9 0 15 0 C15 4.95 15 9.9 15 15 C12.69 15 10.38 15 8 15 C8 27.54 8 40.08 8 53 C5.36 53 2.72 53 0 53 C0 50.36 0 47.72 0 45 C-2.31 45 -4.62 45 -7 45 C-7 32.79 -7 20.58 -7 8 C-4.69 8 -2.38 8 0 8 C0 5.36 0 2.72 0 0 Z " fill="#293939" transform="translate(247,487)"/>
<path d="M0 0 C2.64 0 5.28 0 8 0 C8 2.64 8 5.28 8 8 C12.95 8 17.9 8 23 8 C23 10.31 23 12.62 23 15 C20.36 15 17.72 15 15 15 C15 17.64 15 20.28 15 23 C2.79 23 -9.42 23 -22 23 C-22 20.36 -22 17.72 -22 15 C-24.64 15 -27.28 15 -30 15 C-30 12.69 -30 10.38 -30 8 C-20.1 8 -10.2 8 0 8 C0 5.36 0 2.72 0 0 Z " fill="#DEDEEE" transform="translate(202,202)"/>
<path d="M0 0 C2.31 0 4.62 0 7 0 C7 2.64 7 5.28 7 8 C11.95 8 16.9 8 22 8 C22 5.36 22 2.72 22 0 C24.64 0 27.28 0 30 0 C30 4.95 30 9.9 30 15 C27.36 15 24.72 15 22 15 C22 22.59 22 30.18 22 38 C17.05 38 12.1 38 7 38 C7 30.41 7 22.82 7 15 C4.69 15 2.38 15 0 15 C0 10.05 0 5.1 0 0 Z " fill="#94A4A4" transform="translate(165,232)"/>
<path d="M0 0 C2.64 0 5.28 0 8 0 C8 4.95 8 9.9 8 15 C10.31 15 12.62 15 15 15 C15 19.95 15 24.9 15 30 C17.64 30 20.28 30 23 30 C23 34.95 23 39.9 23 45 C18.05 45 13.1 45 8 45 C8 37.74 8 30.48 8 23 C3.05 23 -1.9 23 -7 23 C-7 18.05 -7 13.1 -7 8 C-4.69 8 -2.38 8 0 8 C0 5.36 0 2.72 0 0 Z " fill="#101010" transform="translate(412,382)"/>
<path d="M0 0 C7.26 0 14.52 0 22 0 C22 2.31 22 4.62 22 7 C19.69 7 17.38 7 15 7 C15 14.59 15 22.18 15 30 C19.95 30 24.9 30 30 30 C30 32.31 30 34.62 30 37 C20.1 37 10.2 37 0 37 C0 34.69 0 32.38 0 30 C2.31 30 4.62 30 7 30 C7 25.05 7 20.1 7 15 C4.69 15 2.38 15 0 15 C0 10.05 0 5.1 0 0 Z " fill="#101010" transform="translate(210,480)"/>
<path d="M0 0 C2.31 0 4.62 0 7 0 C7 2.64 7 5.28 7 8 C9.64 8 12.28 8 15 8 C15 17.9 15 27.8 15 38 C12.36 38 9.72 38 7 38 C7 33.05 7 28.1 7 23 C-0.26 23 -7.52 23 -15 23 C-15 20.36 -15 17.72 -15 15 C-12.69 15 -10.38 15 -8 15 C-8 12.69 -8 10.38 -8 8 C-5.36 8 -2.72 8 0 8 C0 5.36 0 2.72 0 0 Z " fill="#526262" transform="translate(450,307)"/>
<path d="M0 0 C4.95 0 9.9 0 15 0 C15 7.59 15 15.18 15 23 C22.26 23 29.52 23 37 23 C37 25.31 37 27.62 37 30 C34.69 30 32.38 30 30 30 C30 32.64 30 35.28 30 38 C27.36 38 24.72 38 22 38 C22 35.36 22 32.72 22 30 C14.74 30 7.48 30 0 30 C0 27.69 0 25.38 0 23 C2.31 23 4.62 23 7 23 C7 18.05 7 13.1 7 8 C4.69 8 2.38 8 0 8 C0 5.36 0 2.72 0 0 Z " fill="#9494AC" transform="translate(315,202)"/>
<path d="M0 0 C7.59 0 15.18 0 23 0 C23 2.31 23 4.62 23 7 C18.05 7 13.1 7 8 7 C8 14.59 8 22.18 8 30 C3.05 30 -1.9 30 -7 30 C-7 27.36 -7 24.72 -7 22 C-9.64 22 -12.28 22 -15 22 C-15 19.69 -15 17.38 -15 15 C-12.36 15 -9.72 15 -7 15 C-7 12.36 -7 9.72 -7 7 C-4.69 7 -2.38 7 0 7 C0 4.69 0 2.38 0 0 Z " fill="#293939" transform="translate(157,420)"/>
<path d="M0 0 C2.31 0 4.62 0 7 0 C7 14.85 7 29.7 7 45 C4.69 45 2.38 45 0 45 C0 47.31 0 49.62 0 52 C-2.64 52 -5.28 52 -8 52 C-8 42.1 -8 32.2 -8 22 C-5.36 22 -2.72 22 0 22 C0 14.74 0 7.48 0 0 Z " fill="#626283" transform="translate(270,375)"/>
<path d="M0 0 C2.31 0 4.62 0 7 0 C7 4.95 7 9.9 7 15 C4.69 15 2.38 15 0 15 C0 17.31 0 19.62 0 22 C7.26 22 14.52 22 22 22 C22 24.64 22 27.28 22 30 C17.05 30 12.1 30 7 30 C7 32.31 7 34.62 7 37 C4.69 37 2.38 37 0 37 C0 34.69 0 32.38 0 30 C-2.64 30 -5.28 30 -8 30 C-8 22.41 -8 14.82 -8 7 C-5.36 7 -2.72 7 0 7 C0 4.69 0 2.38 0 0 Z " fill="#FFFFFF" transform="translate(315,210)"/>
<path d="M0 0 C22.11 0 44.22 0 67 0 C67 2.31 67 4.62 67 7 C44.89 7 22.78 7 0 7 C0 4.69 0 2.38 0 0 Z " fill="#293939" transform="translate(195,60)"/>
<path d="M0 0 C2.64 0 5.28 0 8 0 C8 9.9 8 19.8 8 30 C5.36 30 2.72 30 0 30 C0 32.64 0 35.28 0 38 C-4.95 38 -9.9 38 -15 38 C-15 35.36 -15 32.72 -15 30 C-12.36 30 -9.72 30 -7 30 C-7 25.05 -7 20.1 -7 15 C-4.69 15 -2.38 15 0 15 C0 10.05 0 5.1 0 0 Z " fill="#DEDEEE" transform="translate(172,382)"/>
<path d="M0 0 C4.95 0 9.9 0 15 0 C15 2.64 15 5.28 15 8 C17.31 8 19.62 8 22 8 C22 10.31 22 12.62 22 15 C24.64 15 27.28 15 30 15 C30 17.64 30 20.28 30 23 C22.41 23 14.82 23 7 23 C7 20.36 7 17.72 7 15 C4.69 15 2.38 15 0 15 C0 10.05 0 5.1 0 0 Z " fill="#DEDEEE" transform="translate(255,127)"/>
<path d="M0 0 C2.31 0 4.62 0 7 0 C7 9.9 7 19.8 7 30 C4.69 30 2.38 30 0 30 C0 32.64 0 35.28 0 38 C-2.64 38 -5.28 38 -8 38 C-8 28.1 -8 18.2 -8 8 C-5.36 8 -2.72 8 0 8 C0 5.36 0 2.72 0 0 Z " fill="#DEDEEE" transform="translate(420,247)"/>
<path d="M0 0 C2.31 0 4.62 0 7 0 C7 2.31 7 4.62 7 7 C14.59 7 22.18 7 30 7 C30 4.69 30 2.38 30 0 C32.31 0 34.62 0 37 0 C37 7.26 37 14.52 37 22 C34.69 22 32.38 22 30 22 C30 19.69 30 17.38 30 15 C20.1 15 10.2 15 0 15 C0 10.05 0 5.1 0 0 Z " fill="#626283" transform="translate(135,315)"/>
<path d="M0 0 C2.31 0 4.62 0 7 0 C7 2.64 7 5.28 7 8 C14.59 8 22.18 8 30 8 C30 10.31 30 12.62 30 15 C32.31 15 34.62 15 37 15 C37 17.64 37 20.28 37 23 C32.05 23 27.1 23 22 23 C22 20.36 22 17.72 22 15 C12.1 15 2.2 15 -8 15 C-8 12.69 -8 10.38 -8 8 C-5.36 8 -2.72 8 0 8 C0 5.36 0 2.72 0 0 Z " fill="#DEDEEE" transform="translate(345,262)"/>
<path d="M0 0 C2.31 0 4.62 0 7 0 C7 9.9 7 19.8 7 30 C2.05 30 -2.9 30 -8 30 C-8 27.69 -8 25.38 -8 23 C-10.31 23 -12.62 23 -15 23 C-15 20.36 -15 17.72 -15 15 C-12.69 15 -10.38 15 -8 15 C-8 12.69 -8 10.38 -8 8 C-5.36 8 -2.72 8 0 8 C0 5.36 0 2.72 0 0 Z " fill="#FFFFFF" transform="translate(150,232)"/>
<path d="M0 0 C2.31 0 4.62 0 7 0 C7 9.9 7 19.8 7 30 C9.64 30 12.28 30 15 30 C15 32.31 15 34.62 15 37 C12.36 37 9.72 37 7 37 C7 41.95 7 46.9 7 52 C4.69 52 2.38 52 0 52 C0 34.84 0 17.68 0 0 Z " fill="#626283" transform="translate(300,180)"/>
<path d="M0 0 C2.64 0 5.28 0 8 0 C8 14.85 8 29.7 8 45 C5.36 45 2.72 45 0 45 C0 35.1 0 25.2 0 15 C-2.31 15 -4.62 15 -7 15 C-7 12.69 -7 10.38 -7 8 C-4.69 8 -2.38 8 0 8 C0 5.36 0 2.72 0 0 Z " fill="#626283" transform="translate(352,322)"/>
<path d="M0 0 C4.95 0 9.9 0 15 0 C15 4.95 15 9.9 15 15 C12.69 15 10.38 15 8 15 C8 19.95 8 24.9 8 30 C5.36 30 2.72 30 0 30 C0 25.05 0 20.1 0 15 C-2.31 15 -4.62 15 -7 15 C-7 12.69 -7 10.38 -7 8 C-4.69 8 -2.38 8 0 8 C0 5.36 0 2.72 0 0 Z " fill="#738383" transform="translate(247,487)"/>
<path d="M0 0 C2.64 0 5.28 0 8 0 C8 12.54 8 25.08 8 38 C3.05 38 -1.9 38 -7 38 C-7 35.36 -7 32.72 -7 30 C-4.69 30 -2.38 30 0 30 C0 20.1 0 10.2 0 0 Z " fill="#101010" transform="translate(187,397)"/>
<path d="M0 0 C2.64 0 5.28 0 8 0 C8 14.85 8 29.7 8 45 C5.36 45 2.72 45 0 45 C0 30.15 0 15.3 0 0 Z " fill="#526262" transform="translate(97,150)"/>
<path d="M0 0 C2.64 0 5.28 0 8 0 C8 7.26 8 14.52 8 22 C10.31 22 12.62 22 15 22 C15 26.95 15 31.9 15 37 C12.69 37 10.38 37 8 37 C8 34.69 8 32.38 8 30 C5.36 30 2.72 30 0 30 C0 20.1 0 10.2 0 0 Z " fill="#526262" transform="translate(157,225)"/>
<path d="M0 0 C2.64 0 5.28 0 8 0 C8 4.95 8 9.9 8 15 C3.05 15 -1.9 15 -7 15 C-7 17.64 -7 20.28 -7 23 C-9.64 23 -12.28 23 -15 23 C-15 20.36 -15 17.72 -15 15 C-17.31 15 -19.62 15 -22 15 C-22 12.69 -22 10.38 -22 8 C-14.74 8 -7.48 8 0 8 C0 5.36 0 2.72 0 0 Z " fill="#626283" transform="translate(337,277)"/>
<path d="M0 0 C4.95 0 9.9 0 15 0 C15 7.26 15 14.52 15 22 C10.05 22 5.1 22 0 22 C0 14.74 0 7.48 0 0 Z " fill="#526262" transform="translate(300,495)"/>
<path d="M0 0 C2.64 0 5.28 0 8 0 C8 4.95 8 9.9 8 15 C10.31 15 12.62 15 15 15 C15 17.31 15 19.62 15 22 C7.74 22 0.48 22 -7 22 C-7 17.05 -7 12.1 -7 7 C-4.69 7 -2.38 7 0 7 C0 4.69 0 2.38 0 0 Z " fill="#293939" transform="translate(262,495)"/>
<path d="M0 0 C4.95 0 9.9 0 15 0 C15 4.95 15 9.9 15 15 C12.36 15 9.72 15 7 15 C7 19.95 7 24.9 7 30 C4.69 30 2.38 30 0 30 C0 20.1 0 10.2 0 0 Z " fill="#9494AC" transform="translate(255,427)"/>
<path d="M0 0 C2.31 0 4.62 0 7 0 C7 14.85 7 29.7 7 45 C4.69 45 2.38 45 0 45 C0 30.15 0 15.3 0 0 Z " fill="#101010" transform="translate(300,442)"/>
<path d="M0 0 C2.31 0 4.62 0 7 0 C7 12.21 7 24.42 7 37 C2.05 37 -2.9 37 -8 37 C-8 34.69 -8 32.38 -8 30 C-5.36 30 -2.72 30 0 30 C0 20.1 0 10.2 0 0 Z " fill="#293939" transform="translate(450,150)"/>
<path d="M0 0 C14.85 0 29.7 0 45 0 C45 2.31 45 4.62 45 7 C30.15 7 15.3 7 0 7 C0 4.69 0 2.38 0 0 Z " fill="#9494AC" transform="translate(202,120)"/>
<path d="M0 0 C2.31 0 4.62 0 7 0 C7 4.95 7 9.9 7 15 C-5.21 15 -17.42 15 -30 15 C-30 12.69 -30 10.38 -30 8 C-20.1 8 -10.2 8 0 8 C0 5.36 0 2.72 0 0 Z " fill="#101010" transform="translate(270,67)"/>
<path d="M0 0 C12.54 0 25.08 0 38 0 C38 2.64 38 5.28 38 8 C25.46 8 12.92 8 0 8 C0 5.36 0 2.72 0 0 Z " fill="#DEDEEE" transform="translate(352,217)"/>
<path d="M0 0 C12.21 0 24.42 0 37 0 C37 2.64 37 5.28 37 8 C24.79 8 12.58 8 0 8 C0 5.36 0 2.72 0 0 Z " fill="#BDBDCD" transform="translate(180,217)"/>
<path d="M0 0 C4.95 0 9.9 0 15 0 C15 4.95 15 9.9 15 15 C12.69 15 10.38 15 8 15 C8 17.64 8 20.28 8 23 C5.36 23 2.72 23 0 23 C0 15.41 0 7.82 0 0 Z " fill="#829292" transform="translate(142,412)"/>
<path d="M0 0 C2.64 0 5.28 0 8 0 C8 7.59 8 15.18 8 23 C3.05 23 -1.9 23 -7 23 C-7 18.05 -7 13.1 -7 8 C-4.69 8 -2.38 8 0 8 C0 5.36 0 2.72 0 0 Z " fill="#293939" transform="translate(412,382)"/>
<path d="M0 0 C2.64 0 5.28 0 8 0 C8 4.95 8 9.9 8 15 C5.36 15 2.72 15 0 15 C0 17.31 0 19.62 0 22 C-2.31 22 -4.62 22 -7 22 C-7 19.69 -7 17.38 -7 15 C-9.64 15 -12.28 15 -15 15 C-15 12.36 -15 9.72 -15 7 C-10.05 7 -5.1 7 0 7 C0 4.69 0 2.38 0 0 Z " fill="#626283" transform="translate(337,255)"/>
<path d="M0 0 C4.95 0 9.9 0 15 0 C15 4.95 15 9.9 15 15 C7.41 15 -0.18 15 -8 15 C-8 12.36 -8 9.72 -8 7 C-5.36 7 -2.72 7 0 7 C0 4.69 0 2.38 0 0 Z " fill="#CD2920" transform="translate(225,225)"/>
<path d="M0 0 C7.26 0 14.52 0 22 0 C22 4.95 22 9.9 22 15 C17.05 15 12.1 15 7 15 C7 12.69 7 10.38 7 8 C4.69 8 2.38 8 0 8 C0 5.36 0 2.72 0 0 Z " fill="#9494AC" transform="translate(270,502)"/>
<path d="M0 0 C4.95 0 9.9 0 15 0 C15 7.59 15 15.18 15 23 C12.69 23 10.38 23 8 23 C8 20.36 8 17.72 8 15 C5.36 15 2.72 15 0 15 C0 10.05 0 5.1 0 0 Z " fill="#738383" transform="translate(427,397)"/>
<path d="M0 0 C2.31 0 4.62 0 7 0 C7 7.26 7 14.52 7 22 C9.64 22 12.28 22 15 22 C15 24.64 15 27.28 15 30 C10.05 30 5.1 30 0 30 C0 20.1 0 10.2 0 0 Z " fill="#293939" transform="translate(195,495)"/>
<path d="M0 0 C2.31 0 4.62 0 7 0 C7 9.9 7 19.8 7 30 C4.69 30 2.38 30 0 30 C0 27.36 0 24.72 0 22 C-2.64 22 -5.28 22 -8 22 C-8 19.69 -8 17.38 -8 15 C-5.36 15 -2.72 15 0 15 C0 10.05 0 5.1 0 0 Z " fill="#DEDEEE" transform="translate(225,390)"/>
<path d="M0 0 C2.31 0 4.62 0 7 0 C7 12.21 7 24.42 7 37 C4.69 37 2.38 37 0 37 C0 24.79 0 12.58 0 0 Z " fill="#101010" transform="translate(270,375)"/>
<path d="M0 0 C2.64 0 5.28 0 8 0 C8 9.9 8 19.8 8 30 C5.36 30 2.72 30 0 30 C0 20.1 0 10.2 0 0 Z " fill="#BDBDCD" transform="translate(307,405)"/>
<path d="M0 0 C2.64 0 5.28 0 8 0 C8 4.95 8 9.9 8 15 C10.31 15 12.62 15 15 15 C15 17.64 15 20.28 15 23 C10.05 23 5.1 23 0 23 C0 15.41 0 7.82 0 0 Z " fill="#101010" transform="translate(307,367)"/>
<path d="M0 0 C2.64 0 5.28 0 8 0 C8 7.59 8 15.18 8 23 C3.05 23 -1.9 23 -7 23 C-7 20.36 -7 17.72 -7 15 C-4.69 15 -2.38 15 0 15 C0 10.05 0 5.1 0 0 Z " fill="#626283" transform="translate(337,337)"/>
<path d="M0 0 C7.59 0 15.18 0 23 0 C23 4.95 23 9.9 23 15 C20.36 15 17.72 15 15 15 C15 12.69 15 10.38 15 8 C10.05 8 5.1 8 0 8 C0 5.36 0 2.72 0 0 Z " fill="#626283" transform="translate(127,277)"/>
<path d="M0 0 C9.9 0 19.8 0 30 0 C30 2.64 30 5.28 30 8 C20.1 8 10.2 8 0 8 C0 5.36 0 2.72 0 0 Z " fill="#526262" transform="translate(487,67)"/>
<path d="M0 0 C7.26 0 14.52 0 22 0 C22 2.64 22 5.28 22 8 C19.69 8 17.38 8 15 8 C15 10.31 15 12.62 15 15 C12.36 15 9.72 15 7 15 C7 12.69 7 10.38 7 8 C4.69 8 2.38 8 0 8 C0 5.36 0 2.72 0 0 Z " fill="#FFFFFF" transform="translate(135,292)"/>
<path d="M0 0 C2.31 0 4.62 0 7 0 C7 7.59 7 15.18 7 23 C2.05 23 -2.9 23 -8 23 C-8 20.36 -8 17.72 -8 15 C-5.36 15 -2.72 15 0 15 C0 10.05 0 5.1 0 0 Z " fill="#293939" transform="translate(315,502)"/>
<path d="M0 0 C4.95 0 9.9 0 15 0 C15 4.95 15 9.9 15 15 C10.05 15 5.1 15 0 15 C0 10.05 0 5.1 0 0 Z " fill="#BDBDCD" transform="translate(225,495)"/>
<path d="M0 0 C4.95 0 9.9 0 15 0 C15 2.64 15 5.28 15 8 C12.36 8 9.72 8 7 8 C7 10.31 7 12.62 7 15 C2.05 15 -2.9 15 -8 15 C-8 12.69 -8 10.38 -8 8 C-5.36 8 -2.72 8 0 8 C0 5.36 0 2.72 0 0 Z " fill="#101010" transform="translate(315,427)"/>
<path d="M0 0 C7.59 0 15.18 0 23 0 C23 2.31 23 4.62 23 7 C18.05 7 13.1 7 8 7 C8 9.64 8 12.28 8 15 C5.36 15 2.72 15 0 15 C0 10.05 0 5.1 0 0 Z " fill="#101010" transform="translate(157,420)"/>
<path d="M0 0 C7.59 0 15.18 0 23 0 C23 4.95 23 9.9 23 15 C20.36 15 17.72 15 15 15 C15 12.36 15 9.72 15 7 C10.05 7 5.1 7 0 7 C0 4.69 0 2.38 0 0 Z " fill="#101010" transform="translate(322,405)"/>
<path d="M0 0 C2.64 0 5.28 0 8 0 C8 7.26 8 14.52 8 22 C3.05 22 -1.9 22 -7 22 C-7 19.69 -7 17.38 -7 15 C-4.69 15 -2.38 15 0 15 C0 10.05 0 5.1 0 0 Z " fill="#101010" transform="translate(472,390)"/>
<path d="M0 0 C2.31 0 4.62 0 7 0 C7 7.59 7 15.18 7 23 C2.05 23 -2.9 23 -8 23 C-8 20.36 -8 17.72 -8 15 C-5.36 15 -2.72 15 0 15 C0 10.05 0 5.1 0 0 Z " fill="#101010" transform="translate(465,367)"/>
<path d="M0 0 C2.64 0 5.28 0 8 0 C8 2.64 8 5.28 8 8 C10.31 8 12.62 8 15 8 C15 12.95 15 17.9 15 23 C12.69 23 10.38 23 8 23 C8 20.36 8 17.72 8 15 C5.36 15 2.72 15 0 15 C0 10.05 0 5.1 0 0 Z " fill="#101010" transform="translate(187,367)"/>
<path d="M0 0 C4.95 0 9.9 0 15 0 C15 7.59 15 15.18 15 23 C12.69 23 10.38 23 8 23 C8 18.05 8 13.1 8 8 C5.36 8 2.72 8 0 8 C0 5.36 0 2.72 0 0 Z " fill="#9494AC" transform="translate(292,307)"/>
<path d="M0 0 C4.95 0 9.9 0 15 0 C15 2.64 15 5.28 15 8 C12.69 8 10.38 8 8 8 C8 10.31 8 12.62 8 15 C3.05 15 -1.9 15 -7 15 C-7 12.69 -7 10.38 -7 8 C-4.69 8 -2.38 8 0 8 C0 5.36 0 2.72 0 0 Z " fill="#526262" transform="translate(232,262)"/>
<path d="M0 0 C4.95 0 9.9 0 15 0 C15 2.64 15 5.28 15 8 C12.69 8 10.38 8 8 8 C8 10.31 8 12.62 8 15 C3.05 15 -1.9 15 -7 15 C-7 12.69 -7 10.38 -7 8 C-4.69 8 -2.38 8 0 8 C0 5.36 0 2.72 0 0 Z " fill="#293939" transform="translate(187,262)"/>
<path d="M0 0 C2.64 0 5.28 0 8 0 C8 4.95 8 9.9 8 15 C5.36 15 2.72 15 0 15 C0 17.64 0 20.28 0 23 C-2.31 23 -4.62 23 -7 23 C-7 18.05 -7 13.1 -7 8 C-4.69 8 -2.38 8 0 8 C0 5.36 0 2.72 0 0 Z " fill="#9494AC" transform="translate(247,217)"/>
<path d="M0 0 C7.26 0 14.52 0 22 0 C22 2.64 22 5.28 22 8 C17.05 8 12.1 8 7 8 C7 10.31 7 12.62 7 15 C4.69 15 2.38 15 0 15 C0 10.05 0 5.1 0 0 Z " fill="#293939" transform="translate(165,97)"/>
<path d="M0 0 C2.64 0 5.28 0 8 0 C8 2.64 8 5.28 8 8 C10.31 8 12.62 8 15 8 C15 10.31 15 12.62 15 15 C7.74 15 0.48 15 -7 15 C-7 12.69 -7 10.38 -7 8 C-4.69 8 -2.38 8 0 8 C0 5.36 0 2.72 0 0 Z " fill="#9494AC" transform="translate(322,367)"/>
<path d="M0 0 C7.26 0 14.52 0 22 0 C22 2.31 22 4.62 22 7 C19.69 7 17.38 7 15 7 C15 9.64 15 12.28 15 15 C12.36 15 9.72 15 7 15 C7 12.36 7 9.72 7 7 C4.69 7 2.38 7 0 7 C0 4.69 0 2.38 0 0 Z " fill="#626283" transform="translate(330,225)"/>
<path d="M0 0 C2.31 0 4.62 0 7 0 C7 7.59 7 15.18 7 23 C4.69 23 2.38 23 0 23 C0 20.36 0 17.72 0 15 C-2.64 15 -5.28 15 -8 15 C-8 12.69 -8 10.38 -8 8 C-5.36 8 -2.72 8 0 8 C0 5.36 0 2.72 0 0 Z " fill="#293939" transform="translate(135,412)"/>
<path d="M0 0 C9.9 0 19.8 0 30 0 C30 2.31 30 4.62 30 7 C20.1 7 10.2 7 0 7 C0 4.69 0 2.38 0 0 Z " fill="#101010" transform="translate(382,345)"/>
<path d="M0 0 C2.31 0 4.62 0 7 0 C7 4.95 7 9.9 7 15 C-0.26 15 -7.52 15 -15 15 C-15 12.69 -15 10.38 -15 8 C-10.05 8 -5.1 8 0 8 C0 5.36 0 2.72 0 0 Z " fill="#626283" transform="translate(330,307)"/>
<path d="M0 0 C2.31 0 4.62 0 7 0 C7 9.9 7 19.8 7 30 C4.69 30 2.38 30 0 30 C0 20.1 0 10.2 0 0 Z " fill="#626283" transform="translate(420,247)"/>
<path d="M0 0 C9.9 0 19.8 0 30 0 C30 2.31 30 4.62 30 7 C20.1 7 10.2 7 0 7 C0 4.69 0 2.38 0 0 Z " fill="#293939" transform="translate(180,225)"/>
<path d="M0 0 C9.9 0 19.8 0 30 0 C30 2.31 30 4.62 30 7 C20.1 7 10.2 7 0 7 C0 4.69 0 2.38 0 0 Z " fill="#626283" transform="translate(360,210)"/>
<path d="M0 0 C2.64 0 5.28 0 8 0 C8 7.59 8 15.18 8 23 C5.36 23 2.72 23 0 23 C0 15.41 0 7.82 0 0 Z " fill="#526262" transform="translate(247,517)"/>
<path d="M0 0 C2.64 0 5.28 0 8 0 C8 7.59 8 15.18 8 23 C5.36 23 2.72 23 0 23 C0 15.41 0 7.82 0 0 Z " fill="#101010" transform="translate(457,322)"/>
<path d="M0 0 C2.64 0 5.28 0 8 0 C8 7.59 8 15.18 8 23 C5.36 23 2.72 23 0 23 C0 15.41 0 7.82 0 0 Z " fill="#293939" transform="translate(457,127)"/>
<path d="M0 0 C7.26 0 14.52 0 22 0 C22 2.64 22 5.28 22 8 C14.74 8 7.48 8 0 8 C0 5.36 0 2.72 0 0 Z " fill="#DEDEEE" transform="translate(225,487)"/>
<path d="M0 0 C4.95 0 9.9 0 15 0 C15 4.95 15 9.9 15 15 C12.36 15 9.72 15 7 15 C7 12.69 7 10.38 7 8 C4.69 8 2.38 8 0 8 C0 5.36 0 2.72 0 0 Z " fill="#DEDEEE" transform="translate(180,352)"/>
<path d="M0 0 C2.64 0 5.28 0 8 0 C8 7.26 8 14.52 8 22 C5.36 22 2.72 22 0 22 C0 14.74 0 7.48 0 0 Z " fill="#101010" transform="translate(412,285)"/>
<path d="M0 0 C7.26 0 14.52 0 22 0 C22 2.64 22 5.28 22 8 C14.74 8 7.48 8 0 8 C0 5.36 0 2.72 0 0 Z " fill="#101010" transform="translate(195,277)"/>
<path d="M0 0 C2.64 0 5.28 0 8 0 C8 2.31 8 4.62 8 7 C10.31 7 12.62 7 15 7 C15 9.64 15 12.28 15 15 C10.05 15 5.1 15 0 15 C0 10.05 0 5.1 0 0 Z " fill="#CD2920" transform="translate(172,225)"/>
<path d="M0 0 C2.64 0 5.28 0 8 0 C8 2.31 8 4.62 8 7 C10.31 7 12.62 7 15 7 C15 9.64 15 12.28 15 15 C10.05 15 5.1 15 0 15 C0 10.05 0 5.1 0 0 Z " fill="#7B2931" transform="translate(232,210)"/>
<path d="M0 0 C7.26 0 14.52 0 22 0 C22 2.64 22 5.28 22 8 C14.74 8 7.48 8 0 8 C0 5.36 0 2.72 0 0 Z " fill="#DEDEEE" transform="translate(225,202)"/>
<path d="M0 0 C7.26 0 14.52 0 22 0 C22 2.64 22 5.28 22 8 C14.74 8 7.48 8 0 8 C0 5.36 0 2.72 0 0 Z " fill="#293939" transform="translate(210,82)"/>
<path d="M0 0 C4.95 0 9.9 0 15 0 C15 4.95 15 9.9 15 15 C12.69 15 10.38 15 8 15 C8 12.69 8 10.38 8 8 C5.36 8 2.72 8 0 8 C0 5.36 0 2.72 0 0 Z " fill="#738383" transform="translate(172,412)"/>
<path d="M0 0 C2.64 0 5.28 0 8 0 C8 4.95 8 9.9 8 15 C3.05 15 -1.9 15 -7 15 C-7 12.69 -7 10.38 -7 8 C-4.69 8 -2.38 8 0 8 C0 5.36 0 2.72 0 0 Z " fill="#626283" transform="translate(172,337)"/>
<path d="M0 0 C2.31 0 4.62 0 7 0 C7 2.31 7 4.62 7 7 C9.64 7 12.28 7 15 7 C15 9.64 15 12.28 15 15 C10.05 15 5.1 15 0 15 C0 10.05 0 5.1 0 0 Z " fill="#626283" transform="translate(240,285)"/>
<path d="M0 0 C2.64 0 5.28 0 8 0 C8 2.64 8 5.28 8 8 C10.31 8 12.62 8 15 8 C15 10.31 15 12.62 15 15 C10.05 15 5.1 15 0 15 C0 10.05 0 5.1 0 0 Z " fill="#526262" transform="translate(157,202)"/>
<path d="M0 0 C2.31 0 4.62 0 7 0 C7 4.95 7 9.9 7 15 C2.05 15 -2.9 15 -8 15 C-8 12.36 -8 9.72 -8 7 C-5.36 7 -2.72 7 0 7 C0 4.69 0 2.38 0 0 Z " fill="#101010" transform="translate(120,195)"/>
<path d="M0 0 C4.95 0 9.9 0 15 0 C15 2.64 15 5.28 15 8 C12.36 8 9.72 8 7 8 C7 10.31 7 12.62 7 15 C4.69 15 2.38 15 0 15 C0 10.05 0 5.1 0 0 Z " fill="#526262" transform="translate(150,112)"/>
<path d="M0 0 C2.31 0 4.62 0 7 0 C7 4.95 7 9.9 7 15 C2.05 15 -2.9 15 -8 15 C-8 12.69 -8 10.38 -8 8 C-5.36 8 -2.72 8 0 8 C0 5.36 0 2.72 0 0 Z " fill="#526262" transform="translate(150,427)"/>
<path d="M0 0 C2.31 0 4.62 0 7 0 C7 7.59 7 15.18 7 23 C4.69 23 2.38 23 0 23 C0 15.41 0 7.82 0 0 Z " fill="#293939" transform="translate(120,397)"/>
<path d="M0 0 C4.95 0 9.9 0 15 0 C15 4.95 15 9.9 15 15 C12.69 15 10.38 15 8 15 C8 12.36 8 9.72 8 7 C5.36 7 2.72 7 0 7 C0 4.69 0 2.38 0 0 Z " fill="#526262" transform="translate(457,390)"/>
<path d="M0 0 C7.59 0 15.18 0 23 0 C23 2.31 23 4.62 23 7 C15.41 7 7.82 7 0 7 C0 4.69 0 2.38 0 0 Z " fill="#DEDEEE" transform="translate(382,285)"/>
<path d="M0 0 C4.95 0 9.9 0 15 0 C15 4.95 15 9.9 15 15 C12.69 15 10.38 15 8 15 C8 12.36 8 9.72 8 7 C5.36 7 2.72 7 0 7 C0 4.69 0 2.38 0 0 Z " fill="#BDBDCD" transform="translate(322,240)"/>
<path d="M0 0 C2.31 0 4.62 0 7 0 C7 4.95 7 9.9 7 15 C2.05 15 -2.9 15 -8 15 C-8 12.69 -8 10.38 -8 8 C-5.36 8 -2.72 8 0 8 C0 5.36 0 2.72 0 0 Z " fill="#9494AC" transform="translate(150,232)"/>
<path d="M0 0 C2.31 0 4.62 0 7 0 C7 7.59 7 15.18 7 23 C4.69 23 2.38 23 0 23 C0 15.41 0 7.82 0 0 Z " fill="#738383" transform="translate(180,172)"/>
<path d="M0 0 C2.31 0 4.62 0 7 0 C7 7.59 7 15.18 7 23 C4.69 23 2.38 23 0 23 C0 15.41 0 7.82 0 0 Z " fill="#101010" transform="translate(135,142)"/>
<path d="M0 0 C2.31 0 4.62 0 7 0 C7 7.59 7 15.18 7 23 C4.69 23 2.38 23 0 23 C0 15.41 0 7.82 0 0 Z " fill="#526262" transform="translate(105,127)"/>
<path d="M0 0 C7.59 0 15.18 0 23 0 C23 2.31 23 4.62 23 7 C15.41 7 7.82 7 0 7 C0 4.69 0 2.38 0 0 Z " fill="#293939" transform="translate(187,90)"/>
<path d="M0 0 C7.26 0 14.52 0 22 0 C22 2.31 22 4.62 22 7 C14.74 7 7.48 7 0 7 C0 4.69 0 2.38 0 0 Z " fill="#101010" transform="translate(300,525)"/>
<path d="M0 0 C7.26 0 14.52 0 22 0 C22 2.31 22 4.62 22 7 C14.74 7 7.48 7 0 7 C0 4.69 0 2.38 0 0 Z " fill="#DEDEEE" transform="translate(270,495)"/>
<path d="M0 0 C7.26 0 14.52 0 22 0 C22 2.31 22 4.62 22 7 C14.74 7 7.48 7 0 7 C0 4.69 0 2.38 0 0 Z " fill="#526262" transform="translate(210,480)"/>
<path d="M0 0 C2.31 0 4.62 0 7 0 C7 7.26 7 14.52 7 22 C4.69 22 2.38 22 0 22 C0 14.74 0 7.48 0 0 Z " fill="#626283" transform="translate(465,345)"/>
<path d="M0 0 C2.31 0 4.62 0 7 0 C7 7.26 7 14.52 7 22 C4.69 22 2.38 22 0 22 C0 14.74 0 7.48 0 0 Z " fill="#9494AC" transform="translate(150,165)"/>
<path d="M0 0 C7.26 0 14.52 0 22 0 C22 2.31 22 4.62 22 7 C14.74 7 7.48 7 0 7 C0 4.69 0 2.38 0 0 Z " fill="#626283" transform="translate(225,120)"/>
<path d="M0 0 C2.64 0 5.28 0 8 0 C8 4.95 8 9.9 8 15 C5.36 15 2.72 15 0 15 C0 10.05 0 5.1 0 0 Z " fill="#94A4A4" transform="translate(307,502)"/>
<path d="M0 0 C2.64 0 5.28 0 8 0 C8 4.95 8 9.9 8 15 C5.36 15 2.72 15 0 15 C0 10.05 0 5.1 0 0 Z " fill="#94A4A4" transform="translate(247,502)"/>
<path d="M0 0 C4.95 0 9.9 0 15 0 C15 2.64 15 5.28 15 8 C10.05 8 5.1 8 0 8 C0 5.36 0 2.72 0 0 Z " fill="#293939" transform="translate(247,487)"/>
<path d="M0 0 C4.95 0 9.9 0 15 0 C15 2.64 15 5.28 15 8 C10.05 8 5.1 8 0 8 C0 5.36 0 2.72 0 0 Z " fill="#293939" transform="translate(210,487)"/>
<path d="M0 0 C2.64 0 5.28 0 8 0 C8 4.95 8 9.9 8 15 C5.36 15 2.72 15 0 15 C0 10.05 0 5.1 0 0 Z " fill="#526262" transform="translate(202,487)"/>
<path d="M0 0 C2.64 0 5.28 0 8 0 C8 4.95 8 9.9 8 15 C5.36 15 2.72 15 0 15 C0 10.05 0 5.1 0 0 Z " fill="#626283" transform="translate(247,412)"/>
<path d="M0 0 C4.95 0 9.9 0 15 0 C15 2.64 15 5.28 15 8 C10.05 8 5.1 8 0 8 C0 5.36 0 2.72 0 0 Z " fill="#101010" transform="translate(450,397)"/>
<path d="M0 0 C2.64 0 5.28 0 8 0 C8 4.95 8 9.9 8 15 C5.36 15 2.72 15 0 15 C0 10.05 0 5.1 0 0 Z " fill="#526262" transform="translate(442,397)"/>
<path d="M0 0 C2.64 0 5.28 0 8 0 C8 4.95 8 9.9 8 15 C5.36 15 2.72 15 0 15 C0 10.05 0 5.1 0 0 Z " fill="#101010" transform="translate(187,397)"/>
<path d="M0 0 C2.64 0 5.28 0 8 0 C8 4.95 8 9.9 8 15 C5.36 15 2.72 15 0 15 C0 10.05 0 5.1 0 0 Z " fill="#626283" transform="translate(307,390)"/>
<path d="M0 0 C2.64 0 5.28 0 8 0 C8 4.95 8 9.9 8 15 C5.36 15 2.72 15 0 15 C0 10.05 0 5.1 0 0 Z " fill="#293939" transform="translate(412,382)"/>
<path d="M0 0 C4.95 0 9.9 0 15 0 C15 2.64 15 5.28 15 8 C10.05 8 5.1 8 0 8 C0 5.36 0 2.72 0 0 Z " fill="#626283" transform="translate(337,367)"/>
<path d="M0 0 C2.64 0 5.28 0 8 0 C8 4.95 8 9.9 8 15 C5.36 15 2.72 15 0 15 C0 10.05 0 5.1 0 0 Z " fill="#9494AC" transform="translate(142,367)"/>
<path d="M0 0 C2.64 0 5.28 0 8 0 C8 4.95 8 9.9 8 15 C5.36 15 2.72 15 0 15 C0 10.05 0 5.1 0 0 Z " fill="#101010" transform="translate(277,360)"/>
<path d="M0 0 C2.64 0 5.28 0 8 0 C8 4.95 8 9.9 8 15 C5.36 15 2.72 15 0 15 C0 10.05 0 5.1 0 0 Z " fill="#626283" transform="translate(307,352)"/>
<path d="M0 0 C2.64 0 5.28 0 8 0 C8 4.95 8 9.9 8 15 C5.36 15 2.72 15 0 15 C0 10.05 0 5.1 0 0 Z " fill="#626283" transform="translate(292,330)"/>
<path d="M0 0 C2.64 0 5.28 0 8 0 C8 4.95 8 9.9 8 15 C5.36 15 2.72 15 0 15 C0 10.05 0 5.1 0 0 Z " fill="#DEDEEE" transform="translate(202,307)"/>
<path d="M0 0 C4.95 0 9.9 0 15 0 C15 2.64 15 5.28 15 8 C10.05 8 5.1 8 0 8 C0 5.36 0 2.72 0 0 Z " fill="#9494AC" transform="translate(127,262)"/>
<path d="M0 0 C2.64 0 5.28 0 8 0 C8 4.95 8 9.9 8 15 C5.36 15 2.72 15 0 15 C0 10.05 0 5.1 0 0 Z " fill="#526262" transform="translate(247,247)"/>
<path d="M0 0 C2.64 0 5.28 0 8 0 C8 4.95 8 9.9 8 15 C5.36 15 2.72 15 0 15 C0 10.05 0 5.1 0 0 Z " fill="#101010" transform="translate(292,240)"/>
<path d="M0 0 C2.64 0 5.28 0 8 0 C8 4.95 8 9.9 8 15 C5.36 15 2.72 15 0 15 C0 10.05 0 5.1 0 0 Z " fill="#626283" transform="translate(412,232)"/>
<path d="M0 0 C4.95 0 9.9 0 15 0 C15 2.64 15 5.28 15 8 C10.05 8 5.1 8 0 8 C0 5.36 0 2.72 0 0 Z " fill="#626283" transform="translate(390,217)"/>
<path d="M0 0 C2.64 0 5.28 0 8 0 C8 4.95 8 9.9 8 15 C5.36 15 2.72 15 0 15 C0 10.05 0 5.1 0 0 Z " fill="#DEDEEE" transform="translate(157,187)"/>
<path d="M0 0 C4.95 0 9.9 0 15 0 C15 2.64 15 5.28 15 8 C10.05 8 5.1 8 0 8 C0 5.36 0 2.72 0 0 Z " fill="#101010" transform="translate(127,187)"/>
<path d="M0 0 C2.64 0 5.28 0 8 0 C8 4.95 8 9.9 8 15 C5.36 15 2.72 15 0 15 C0 10.05 0 5.1 0 0 Z " fill="#293939" transform="translate(97,180)"/>
<path d="M0 0 C2.64 0 5.28 0 8 0 C8 4.95 8 9.9 8 15 C5.36 15 2.72 15 0 15 C0 10.05 0 5.1 0 0 Z " fill="#293939" transform="translate(142,165)"/>
<path d="M0 0 C2.64 0 5.28 0 8 0 C8 4.95 8 9.9 8 15 C5.36 15 2.72 15 0 15 C0 10.05 0 5.1 0 0 Z " fill="#9494AC" transform="translate(292,157)"/>
<path d="M0 0 C4.95 0 9.9 0 15 0 C15 2.64 15 5.28 15 8 C10.05 8 5.1 8 0 8 C0 5.36 0 2.72 0 0 Z " fill="#738383" transform="translate(187,157)"/>
<path d="M0 0 C2.64 0 5.28 0 8 0 C8 4.95 8 9.9 8 15 C5.36 15 2.72 15 0 15 C0 10.05 0 5.1 0 0 Z " fill="#293939" transform="translate(397,142)"/>
<path d="M0 0 C4.95 0 9.9 0 15 0 C15 2.64 15 5.28 15 8 C10.05 8 5.1 8 0 8 C0 5.36 0 2.72 0 0 Z " fill="#9494AC" transform="translate(255,127)"/>
<path d="M0 0 C4.95 0 9.9 0 15 0 C15 2.64 15 5.28 15 8 C10.05 8 5.1 8 0 8 C0 5.36 0 2.72 0 0 Z " fill="#9494AC" transform="translate(187,127)"/>
<path d="M0 0 C2.64 0 5.28 0 8 0 C8 4.95 8 9.9 8 15 C5.36 15 2.72 15 0 15 C0 10.05 0 5.1 0 0 Z " fill="#101010" transform="translate(142,127)"/>
<path d="M0 0 C2.64 0 5.28 0 8 0 C8 4.95 8 9.9 8 15 C5.36 15 2.72 15 0 15 C0 10.05 0 5.1 0 0 Z " fill="#526262" transform="translate(112,112)"/>
<path d="M0 0 C4.95 0 9.9 0 15 0 C15 2.64 15 5.28 15 8 C10.05 8 5.1 8 0 8 C0 5.36 0 2.72 0 0 Z " fill="#526262" transform="translate(450,82)"/>
<path d="M0 0 C4.95 0 9.9 0 15 0 C15 2.64 15 5.28 15 8 C10.05 8 5.1 8 0 8 C0 5.36 0 2.72 0 0 Z " fill="#526262" transform="translate(142,82)"/>
<path d="M0 0 C2.31 0 4.62 0 7 0 C7 4.95 7 9.9 7 15 C4.69 15 2.38 15 0 15 C0 10.05 0 5.1 0 0 Z " fill="#293939" transform="translate(255,517)"/>
<path d="M0 0 C2.31 0 4.62 0 7 0 C7 4.95 7 9.9 7 15 C4.69 15 2.38 15 0 15 C0 10.05 0 5.1 0 0 Z " fill="#526262" transform="translate(255,502)"/>
<path d="M0 0 C2.31 0 4.62 0 7 0 C7 4.95 7 9.9 7 15 C4.69 15 2.38 15 0 15 C0 10.05 0 5.1 0 0 Z " fill="#9494AC" transform="translate(255,442)"/>
<path d="M0 0 C2.31 0 4.62 0 7 0 C7 4.95 7 9.9 7 15 C4.69 15 2.38 15 0 15 C0 10.05 0 5.1 0 0 Z " fill="#626283" transform="translate(255,427)"/>
<path d="M0 0 C4.95 0 9.9 0 15 0 C15 2.31 15 4.62 15 7 C10.05 7 5.1 7 0 7 C0 4.69 0 2.38 0 0 Z " fill="#293939" transform="translate(165,420)"/>
<path d="M0 0 C2.31 0 4.62 0 7 0 C7 4.95 7 9.9 7 15 C4.69 15 2.38 15 0 15 C0 10.05 0 5.1 0 0 Z " fill="#526262" transform="translate(435,405)"/>
<path d="M0 0 C4.95 0 9.9 0 15 0 C15 2.31 15 4.62 15 7 C10.05 7 5.1 7 0 7 C0 4.69 0 2.38 0 0 Z " fill="#DEDEEE" transform="translate(142,405)"/>
<path d="M0 0 C2.31 0 4.62 0 7 0 C7 4.95 7 9.9 7 15 C4.69 15 2.38 15 0 15 C0 10.05 0 5.1 0 0 Z " fill="#626283" transform="translate(240,397)"/>
<path d="M0 0 C2.31 0 4.62 0 7 0 C7 4.95 7 9.9 7 15 C4.69 15 2.38 15 0 15 C0 10.05 0 5.1 0 0 Z " fill="#626283" transform="translate(195,375)"/>
<path d="M0 0 C2.31 0 4.62 0 7 0 C7 4.95 7 9.9 7 15 C4.69 15 2.38 15 0 15 C0 10.05 0 5.1 0 0 Z " fill="#DEDEEE" transform="translate(180,367)"/>
<path d="M0 0 C2.31 0 4.62 0 7 0 C7 4.95 7 9.9 7 15 C4.69 15 2.38 15 0 15 C0 10.05 0 5.1 0 0 Z " fill="#101010" transform="translate(420,360)"/>
<path d="M0 0 C2.31 0 4.62 0 7 0 C7 4.95 7 9.9 7 15 C4.69 15 2.38 15 0 15 C0 10.05 0 5.1 0 0 Z " fill="#626283" transform="translate(285,345)"/>
<path d="M0 0 C2.31 0 4.62 0 7 0 C7 4.95 7 9.9 7 15 C4.69 15 2.38 15 0 15 C0 10.05 0 5.1 0 0 Z " fill="#101010" transform="translate(375,330)"/>
<path d="M0 0 C4.95 0 9.9 0 15 0 C15 2.31 15 4.62 15 7 C10.05 7 5.1 7 0 7 C0 4.69 0 2.38 0 0 Z " fill="#101010" transform="translate(420,315)"/>
<path d="M0 0 C4.95 0 9.9 0 15 0 C15 2.31 15 4.62 15 7 C10.05 7 5.1 7 0 7 C0 4.69 0 2.38 0 0 Z " fill="#101010" transform="translate(360,315)"/>
<path d="M0 0 C2.31 0 4.62 0 7 0 C7 4.95 7 9.9 7 15 C4.69 15 2.38 15 0 15 C0 10.05 0 5.1 0 0 Z " fill="#626283" transform="translate(300,315)"/>
<path d="M0 0 C2.31 0 4.62 0 7 0 C7 4.95 7 9.9 7 15 C4.69 15 2.38 15 0 15 C0 10.05 0 5.1 0 0 Z " fill="#DEDEEE" transform="translate(180,277)"/>
<path d="M0 0 C4.95 0 9.9 0 15 0 C15 2.31 15 4.62 15 7 C10.05 7 5.1 7 0 7 C0 4.69 0 2.38 0 0 Z " fill="#101010" transform="translate(225,270)"/>
<path d="M0 0 C4.95 0 9.9 0 15 0 C15 2.31 15 4.62 15 7 C10.05 7 5.1 7 0 7 C0 4.69 0 2.38 0 0 Z " fill="#526262" transform="translate(180,270)"/>
<path d="M0 0 C4.95 0 9.9 0 15 0 C15 2.31 15 4.62 15 7 C10.05 7 5.1 7 0 7 C0 4.69 0 2.38 0 0 Z " fill="#9494AC" transform="translate(142,255)"/>
<path d="M0 0 C2.31 0 4.62 0 7 0 C7 4.95 7 9.9 7 15 C4.69 15 2.38 15 0 15 C0 10.05 0 5.1 0 0 Z " fill="#738383" transform="translate(165,247)"/>
<path d="M0 0 C4.95 0 9.9 0 15 0 C15 2.31 15 4.62 15 7 C10.05 7 5.1 7 0 7 C0 4.69 0 2.38 0 0 Z " fill="#526262" transform="translate(217,240)"/>
<path d="M0 0 C2.31 0 4.62 0 7 0 C7 4.95 7 9.9 7 15 C4.69 15 2.38 15 0 15 C0 10.05 0 5.1 0 0 Z " fill="#FFFFFF" transform="translate(240,225)"/>
<path d="M0 0 C2.31 0 4.62 0 7 0 C7 4.95 7 9.9 7 15 C4.69 15 2.38 15 0 15 C0 10.05 0 5.1 0 0 Z " fill="#DEDEEE" transform="translate(315,210)"/>
<path d="M0 0 C2.31 0 4.62 0 7 0 C7 4.95 7 9.9 7 15 C4.69 15 2.38 15 0 15 C0 10.05 0 5.1 0 0 Z " fill="#526262" transform="translate(225,210)"/>
<path d="M0 0 C4.95 0 9.9 0 15 0 C15 2.31 15 4.62 15 7 C10.05 7 5.1 7 0 7 C0 4.69 0 2.38 0 0 Z " fill="#9494AC" transform="translate(360,210)"/>
<path d="M0 0 C2.31 0 4.62 0 7 0 C7 4.95 7 9.9 7 15 C4.69 15 2.38 15 0 15 C0 10.05 0 5.1 0 0 Z " fill="#626283" transform="translate(150,187)"/>
<path d="M0 0 C4.95 0 9.9 0 15 0 C15 2.31 15 4.62 15 7 C10.05 7 5.1 7 0 7 C0 4.69 0 2.38 0 0 Z " fill="#9494AC" transform="translate(172,135)"/>
<path d="M0 0 C2.31 0 4.62 0 7 0 C7 4.95 7 9.9 7 15 C4.69 15 2.38 15 0 15 C0 10.05 0 5.1 0 0 Z " fill="#293939" transform="translate(405,127)"/>
<path d="M0 0 C2.31 0 4.62 0 7 0 C7 4.95 7 9.9 7 15 C4.69 15 2.38 15 0 15 C0 10.05 0 5.1 0 0 Z " fill="#293939" transform="translate(465,112)"/>
<path d="M0 0 C2.31 0 4.62 0 7 0 C7 4.95 7 9.9 7 15 C4.69 15 2.38 15 0 15 C0 10.05 0 5.1 0 0 Z " fill="#526262" transform="translate(165,97)"/>
<path d="M0 0 C4.95 0 9.9 0 15 0 C15 2.31 15 4.62 15 7 C10.05 7 5.1 7 0 7 C0 4.69 0 2.38 0 0 Z " fill="#526262" transform="translate(465,75)"/>
<path d="M0 0 C4.95 0 9.9 0 15 0 C15 2.31 15 4.62 15 7 C10.05 7 5.1 7 0 7 C0 4.69 0 2.38 0 0 Z " fill="#293939" transform="translate(240,75)"/>
<path d="M0 0 C4.95 0 9.9 0 15 0 C15 2.31 15 4.62 15 7 C10.05 7 5.1 7 0 7 C0 4.69 0 2.38 0 0 Z " fill="#526262" transform="translate(157,75)"/>
<path d="M0 0 C2.64 0 5.28 0 8 0 C8 2.64 8 5.28 8 8 C5.36 8 2.72 8 0 8 C0 5.36 0 2.72 0 0 Z " fill="#293939" transform="translate(247,532)"/>
<path d="M0 0 C2.64 0 5.28 0 8 0 C8 2.64 8 5.28 8 8 C5.36 8 2.72 8 0 8 C0 5.36 0 2.72 0 0 Z " fill="#526262" transform="translate(307,517)"/>
<path d="M0 0 C2.64 0 5.28 0 8 0 C8 2.64 8 5.28 8 8 C5.36 8 2.72 8 0 8 C0 5.36 0 2.72 0 0 Z " fill="#DEDEEE" transform="translate(262,487)"/>
<path d="M0 0 C2.64 0 5.28 0 8 0 C8 2.64 8 5.28 8 8 C5.36 8 2.72 8 0 8 C0 5.36 0 2.72 0 0 Z " fill="#626283" transform="translate(232,472)"/>
<path d="M0 0 C2.64 0 5.28 0 8 0 C8 2.64 8 5.28 8 8 C5.36 8 2.72 8 0 8 C0 5.36 0 2.72 0 0 Z " fill="#626283" transform="translate(247,457)"/>
<path d="M0 0 C2.64 0 5.28 0 8 0 C8 2.64 8 5.28 8 8 C5.36 8 2.72 8 0 8 C0 5.36 0 2.72 0 0 Z " fill="#DEDEEE" transform="translate(262,442)"/>
<path d="M0 0 C2.64 0 5.28 0 8 0 C8 2.64 8 5.28 8 8 C5.36 8 2.72 8 0 8 C0 5.36 0 2.72 0 0 Z " fill="#293939" transform="translate(427,412)"/>
<path d="M0 0 C2.64 0 5.28 0 8 0 C8 2.64 8 5.28 8 8 C5.36 8 2.72 8 0 8 C0 5.36 0 2.72 0 0 Z " fill="#293939" transform="translate(187,412)"/>
<path d="M0 0 C2.64 0 5.28 0 8 0 C8 2.64 8 5.28 8 8 C5.36 8 2.72 8 0 8 C0 5.36 0 2.72 0 0 Z " fill="#526262" transform="translate(172,412)"/>
<path d="M0 0 C2.64 0 5.28 0 8 0 C8 2.64 8 5.28 8 8 C5.36 8 2.72 8 0 8 C0 5.36 0 2.72 0 0 Z " fill="#9494AC" transform="translate(142,412)"/>
<path d="M0 0 C2.64 0 5.28 0 8 0 C8 2.64 8 5.28 8 8 C5.36 8 2.72 8 0 8 C0 5.36 0 2.72 0 0 Z " fill="#DEDEEE" transform="translate(292,397)"/>
<path d="M0 0 C2.64 0 5.28 0 8 0 C8 2.64 8 5.28 8 8 C5.36 8 2.72 8 0 8 C0 5.36 0 2.72 0 0 Z " fill="#293939" transform="translate(457,382)"/>
<path d="M0 0 C2.64 0 5.28 0 8 0 C8 2.64 8 5.28 8 8 C5.36 8 2.72 8 0 8 C0 5.36 0 2.72 0 0 Z " fill="#DEDEEE" transform="translate(277,382)"/>
<path d="M0 0 C2.64 0 5.28 0 8 0 C8 2.64 8 5.28 8 8 C5.36 8 2.72 8 0 8 C0 5.36 0 2.72 0 0 Z " fill="#626283" transform="translate(322,367)"/>
<path d="M0 0 C2.64 0 5.28 0 8 0 C8 2.64 8 5.28 8 8 C5.36 8 2.72 8 0 8 C0 5.36 0 2.72 0 0 Z " fill="#101010" transform="translate(412,352)"/>
<path d="M0 0 C2.64 0 5.28 0 8 0 C8 2.64 8 5.28 8 8 C5.36 8 2.72 8 0 8 C0 5.36 0 2.72 0 0 Z " fill="#9494AC" transform="translate(157,352)"/>
<path d="M0 0 C2.64 0 5.28 0 8 0 C8 2.64 8 5.28 8 8 C5.36 8 2.72 8 0 8 C0 5.36 0 2.72 0 0 Z " fill="#9494AC" transform="translate(382,337)"/>
<path d="M0 0 C2.64 0 5.28 0 8 0 C8 2.64 8 5.28 8 8 C5.36 8 2.72 8 0 8 C0 5.36 0 2.72 0 0 Z " fill="#101010" transform="translate(337,337)"/>
<path d="M0 0 C2.64 0 5.28 0 8 0 C8 2.64 8 5.28 8 8 C5.36 8 2.72 8 0 8 C0 5.36 0 2.72 0 0 Z " fill="#626283" transform="translate(412,307)"/>
<path d="M0 0 C2.64 0 5.28 0 8 0 C8 2.64 8 5.28 8 8 C5.36 8 2.72 8 0 8 C0 5.36 0 2.72 0 0 Z " fill="#DEDEEE" transform="translate(142,307)"/>
<path d="M0 0 C2.64 0 5.28 0 8 0 C8 2.64 8 5.28 8 8 C5.36 8 2.72 8 0 8 C0 5.36 0 2.72 0 0 Z " fill="#101010" transform="translate(247,292)"/>
<path d="M0 0 C2.64 0 5.28 0 8 0 C8 2.64 8 5.28 8 8 C5.36 8 2.72 8 0 8 C0 5.36 0 2.72 0 0 Z " fill="#9494AC" transform="translate(412,277)"/>
<path d="M0 0 C2.64 0 5.28 0 8 0 C8 2.64 8 5.28 8 8 C5.36 8 2.72 8 0 8 C0 5.36 0 2.72 0 0 Z " fill="#526262" transform="translate(172,262)"/>
<path d="M0 0 C2.64 0 5.28 0 8 0 C8 2.64 8 5.28 8 8 C5.36 8 2.72 8 0 8 C0 5.36 0 2.72 0 0 Z " fill="#626283" transform="translate(292,232)"/>
<path d="M0 0 C2.64 0 5.28 0 8 0 C8 2.64 8 5.28 8 8 C5.36 8 2.72 8 0 8 C0 5.36 0 2.72 0 0 Z " fill="#101010" transform="translate(247,232)"/>
<path d="M0 0 C2.64 0 5.28 0 8 0 C8 2.64 8 5.28 8 8 C5.36 8 2.72 8 0 8 C0 5.36 0 2.72 0 0 Z " fill="#CD2920" transform="translate(217,232)"/>
<path d="M0 0 C2.64 0 5.28 0 8 0 C8 2.64 8 5.28 8 8 C5.36 8 2.72 8 0 8 C0 5.36 0 2.72 0 0 Z " fill="#9494AC" transform="translate(352,217)"/>
<path d="M0 0 C2.64 0 5.28 0 8 0 C8 2.64 8 5.28 8 8 C5.36 8 2.72 8 0 8 C0 5.36 0 2.72 0 0 Z " fill="#293939" transform="translate(217,217)"/>
<path d="M0 0 C2.64 0 5.28 0 8 0 C8 2.64 8 5.28 8 8 C5.36 8 2.72 8 0 8 C0 5.36 0 2.72 0 0 Z " fill="#293939" transform="translate(172,217)"/>
<path d="M0 0 C2.64 0 5.28 0 8 0 C8 2.64 8 5.28 8 8 C5.36 8 2.72 8 0 8 C0 5.36 0 2.72 0 0 Z " fill="#626283" transform="translate(157,202)"/>
<path d="M0 0 C2.64 0 5.28 0 8 0 C8 2.64 8 5.28 8 8 C5.36 8 2.72 8 0 8 C0 5.36 0 2.72 0 0 Z " fill="#293939" transform="translate(412,187)"/>
<path d="M0 0 C2.64 0 5.28 0 8 0 C8 2.64 8 5.28 8 8 C5.36 8 2.72 8 0 8 C0 5.36 0 2.72 0 0 Z " fill="#BDBDCD" transform="translate(292,172)"/>
<path d="M0 0 C2.64 0 5.28 0 8 0 C8 2.64 8 5.28 8 8 C5.36 8 2.72 8 0 8 C0 5.36 0 2.72 0 0 Z " fill="#626283" transform="translate(277,142)"/>
<path d="M0 0 C2.64 0 5.28 0 8 0 C8 2.64 8 5.28 8 8 C5.36 8 2.72 8 0 8 C0 5.36 0 2.72 0 0 Z " fill="#BDBDCD" transform="translate(247,127)"/>
<path d="M0 0 C2.64 0 5.28 0 8 0 C8 2.64 8 5.28 8 8 C5.36 8 2.72 8 0 8 C0 5.36 0 2.72 0 0 Z " fill="#101010" transform="translate(157,112)"/>
<path d="M0 0 C2.64 0 5.28 0 8 0 C8 2.64 8 5.28 8 8 C5.36 8 2.72 8 0 8 C0 5.36 0 2.72 0 0 Z " fill="#526262" transform="translate(127,97)"/>
<path d="M0 0 C2.31 0 4.62 0 7 0 C7 2.64 7 5.28 7 8 C4.69 8 2.38 8 0 8 C0 5.36 0 2.72 0 0 Z " fill="#293939" transform="translate(300,517)"/>
<path d="M0 0 C2.64 0 5.28 0 8 0 C8 2.31 8 4.62 8 7 C5.36 7 2.72 7 0 7 C0 4.69 0 2.38 0 0 Z " fill="#293939" transform="translate(307,495)"/>
<path d="M0 0 C2.64 0 5.28 0 8 0 C8 2.31 8 4.62 8 7 C5.36 7 2.72 7 0 7 C0 4.69 0 2.38 0 0 Z " fill="#293939" transform="translate(292,495)"/>
<path d="M0 0 C2.64 0 5.28 0 8 0 C8 2.31 8 4.62 8 7 C5.36 7 2.72 7 0 7 C0 4.69 0 2.38 0 0 Z " fill="#94A4A4" transform="translate(202,495)"/>
<path d="M0 0 C2.64 0 5.28 0 8 0 C8 2.31 8 4.62 8 7 C5.36 7 2.72 7 0 7 C0 4.69 0 2.38 0 0 Z " fill="#293939" transform="translate(142,435)"/>
<path d="M0 0 C2.31 0 4.62 0 7 0 C7 2.64 7 5.28 7 8 C4.69 8 2.38 8 0 8 C0 5.36 0 2.72 0 0 Z " fill="#293939" transform="translate(180,427)"/>
<path d="M0 0 C2.64 0 5.28 0 8 0 C8 2.31 8 4.62 8 7 C5.36 7 2.72 7 0 7 C0 4.69 0 2.38 0 0 Z " fill="#626283" transform="translate(232,420)"/>
<path d="M0 0 C2.31 0 4.62 0 7 0 C7 2.64 7 5.28 7 8 C4.69 8 2.38 8 0 8 C0 5.36 0 2.72 0 0 Z " fill="#101010" transform="translate(225,412)"/>
<path d="M0 0 C2.31 0 4.62 0 7 0 C7 2.64 7 5.28 7 8 C4.69 8 2.38 8 0 8 C0 5.36 0 2.72 0 0 Z " fill="#293939" transform="translate(150,412)"/>
<path d="M0 0 C2.31 0 4.62 0 7 0 C7 2.64 7 5.28 7 8 C4.69 8 2.38 8 0 8 C0 5.36 0 2.72 0 0 Z " fill="#101010" transform="translate(135,412)"/>
<path d="M0 0 C2.64 0 5.28 0 8 0 C8 2.31 8 4.62 8 7 C5.36 7 2.72 7 0 7 C0 4.69 0 2.38 0 0 Z " fill="#101010" transform="translate(442,405)"/>
<path d="M0 0 C2.64 0 5.28 0 8 0 C8 2.31 8 4.62 8 7 C5.36 7 2.72 7 0 7 C0 4.69 0 2.38 0 0 Z " fill="#101010" transform="translate(217,405)"/>
<path d="M0 0 C2.31 0 4.62 0 7 0 C7 2.64 7 5.28 7 8 C4.69 8 2.38 8 0 8 C0 5.36 0 2.72 0 0 Z " fill="#526262" transform="translate(465,397)"/>
<path d="M0 0 C2.31 0 4.62 0 7 0 C7 2.64 7 5.28 7 8 C4.69 8 2.38 8 0 8 C0 5.36 0 2.72 0 0 Z " fill="#293939" transform="translate(450,397)"/>
<path d="M0 0 C2.31 0 4.62 0 7 0 C7 2.64 7 5.28 7 8 C4.69 8 2.38 8 0 8 C0 5.36 0 2.72 0 0 Z " fill="#101010" transform="translate(210,397)"/>
<path d="M0 0 C2.64 0 5.28 0 8 0 C8 2.31 8 4.62 8 7 C5.36 7 2.72 7 0 7 C0 4.69 0 2.38 0 0 Z " fill="#101010" transform="translate(427,390)"/>
<path d="M0 0 C2.64 0 5.28 0 8 0 C8 2.31 8 4.62 8 7 C5.36 7 2.72 7 0 7 C0 4.69 0 2.38 0 0 Z " fill="#526262" transform="translate(412,390)"/>
<path d="M0 0 C2.64 0 5.28 0 8 0 C8 2.31 8 4.62 8 7 C5.36 7 2.72 7 0 7 C0 4.69 0 2.38 0 0 Z " fill="#101010" transform="translate(202,390)"/>
<path d="M0 0 C2.64 0 5.28 0 8 0 C8 2.31 8 4.62 8 7 C5.36 7 2.72 7 0 7 C0 4.69 0 2.38 0 0 Z " fill="#293939" transform="translate(127,390)"/>
<path d="M0 0 C2.31 0 4.62 0 7 0 C7 2.64 7 5.28 7 8 C4.69 8 2.38 8 0 8 C0 5.36 0 2.72 0 0 Z " fill="#626283" transform="translate(180,382)"/>
<path d="M0 0 C2.31 0 4.62 0 7 0 C7 2.64 7 5.28 7 8 C4.69 8 2.38 8 0 8 C0 5.36 0 2.72 0 0 Z " fill="#626283" transform="translate(135,382)"/>
<path d="M0 0 C2.31 0 4.62 0 7 0 C7 2.64 7 5.28 7 8 C4.69 8 2.38 8 0 8 C0 5.36 0 2.72 0 0 Z " fill="#101010" transform="translate(345,367)"/>
<path d="M0 0 C2.31 0 4.62 0 7 0 C7 2.64 7 5.28 7 8 C4.69 8 2.38 8 0 8 C0 5.36 0 2.72 0 0 Z " fill="#9494AC" transform="translate(330,367)"/>
<path d="M0 0 C2.64 0 5.28 0 8 0 C8 2.31 8 4.62 8 7 C5.36 7 2.72 7 0 7 C0 4.69 0 2.38 0 0 Z " fill="#626283" transform="translate(187,360)"/>
<path d="M0 0 C2.31 0 4.62 0 7 0 C7 2.64 7 5.28 7 8 C4.69 8 2.38 8 0 8 C0 5.36 0 2.72 0 0 Z " fill="#626283" transform="translate(420,352)"/>
<path d="M0 0 C2.31 0 4.62 0 7 0 C7 2.64 7 5.28 7 8 C4.69 8 2.38 8 0 8 C0 5.36 0 2.72 0 0 Z " fill="#101010" transform="translate(330,352)"/>
<path d="M0 0 C2.31 0 4.62 0 7 0 C7 2.64 7 5.28 7 8 C4.69 8 2.38 8 0 8 C0 5.36 0 2.72 0 0 Z " fill="#626283" transform="translate(180,352)"/>
<path d="M0 0 C2.64 0 5.28 0 8 0 C8 2.31 8 4.62 8 7 C5.36 7 2.72 7 0 7 C0 4.69 0 2.38 0 0 Z " fill="#626283" transform="translate(412,345)"/>
<path d="M0 0 C2.31 0 4.62 0 7 0 C7 2.64 7 5.28 7 8 C4.69 8 2.38 8 0 8 C0 5.36 0 2.72 0 0 Z " fill="#101010" transform="translate(435,322)"/>
<path d="M0 0 C2.31 0 4.62 0 7 0 C7 2.64 7 5.28 7 8 C4.69 8 2.38 8 0 8 C0 5.36 0 2.72 0 0 Z " fill="#626283" transform="translate(375,322)"/>
<path d="M0 0 C2.64 0 5.28 0 8 0 C8 2.31 8 4.62 8 7 C5.36 7 2.72 7 0 7 C0 4.69 0 2.38 0 0 Z " fill="#293939" transform="translate(457,315)"/>
<path d="M0 0 C2.64 0 5.28 0 8 0 C8 2.31 8 4.62 8 7 C5.36 7 2.72 7 0 7 C0 4.69 0 2.38 0 0 Z " fill="#293939" transform="translate(442,315)"/>
<path d="M0 0 C2.64 0 5.28 0 8 0 C8 2.31 8 4.62 8 7 C5.36 7 2.72 7 0 7 C0 4.69 0 2.38 0 0 Z " fill="#9494AC" transform="translate(307,315)"/>
<path d="M0 0 C2.64 0 5.28 0 8 0 C8 2.31 8 4.62 8 7 C5.36 7 2.72 7 0 7 C0 4.69 0 2.38 0 0 Z " fill="#DEDEEE" transform="translate(187,315)"/>
<path d="M0 0 C2.64 0 5.28 0 8 0 C8 2.31 8 4.62 8 7 C5.36 7 2.72 7 0 7 C0 4.69 0 2.38 0 0 Z " fill="#DEDEEE" transform="translate(157,315)"/>
<path d="M0 0 C2.31 0 4.62 0 7 0 C7 2.64 7 5.28 7 8 C4.69 8 2.38 8 0 8 C0 5.36 0 2.72 0 0 Z " fill="#293939" transform="translate(450,307)"/>
<path d="M0 0 C2.64 0 5.28 0 8 0 C8 2.31 8 4.62 8 7 C5.36 7 2.72 7 0 7 C0 4.69 0 2.38 0 0 Z " fill="#9494AC" transform="translate(322,300)"/>
<path d="M0 0 C2.64 0 5.28 0 8 0 C8 2.31 8 4.62 8 7 C5.36 7 2.72 7 0 7 C0 4.69 0 2.38 0 0 Z " fill="#9494AC" transform="translate(142,300)"/>
<path d="M0 0 C2.31 0 4.62 0 7 0 C7 2.64 7 5.28 7 8 C4.69 8 2.38 8 0 8 C0 5.36 0 2.72 0 0 Z " fill="#9494AC" transform="translate(150,292)"/>
<path d="M0 0 C2.31 0 4.62 0 7 0 C7 2.64 7 5.28 7 8 C4.69 8 2.38 8 0 8 C0 5.36 0 2.72 0 0 Z " fill="#9494AC" transform="translate(135,292)"/>
<path d="M0 0 C2.64 0 5.28 0 8 0 C8 2.31 8 4.62 8 7 C5.36 7 2.72 7 0 7 C0 4.69 0 2.38 0 0 Z " fill="#626283" transform="translate(262,285)"/>
<path d="M0 0 C2.64 0 5.28 0 8 0 C8 2.31 8 4.62 8 7 C5.36 7 2.72 7 0 7 C0 4.69 0 2.38 0 0 Z " fill="#9494AC" transform="translate(142,285)"/>
<path d="M0 0 C2.31 0 4.62 0 7 0 C7 2.64 7 5.28 7 8 C4.69 8 2.38 8 0 8 C0 5.36 0 2.72 0 0 Z " fill="#DEDEEE" transform="translate(405,277)"/>
<path d="M0 0 C2.31 0 4.62 0 7 0 C7 2.64 7 5.28 7 8 C4.69 8 2.38 8 0 8 C0 5.36 0 2.72 0 0 Z " fill="#626283" transform="translate(270,277)"/>
<path d="M0 0 C2.31 0 4.62 0 7 0 C7 2.64 7 5.28 7 8 C4.69 8 2.38 8 0 8 C0 5.36 0 2.72 0 0 Z " fill="#BDBDCD" transform="translate(150,277)"/>
<path d="M0 0 C2.64 0 5.28 0 8 0 C8 2.31 8 4.62 8 7 C5.36 7 2.72 7 0 7 C0 4.69 0 2.38 0 0 Z " fill="#101010" transform="translate(277,270)"/>
<path d="M0 0 C2.64 0 5.28 0 8 0 C8 2.31 8 4.62 8 7 C5.36 7 2.72 7 0 7 C0 4.69 0 2.38 0 0 Z " fill="#526262" transform="translate(217,270)"/>
<path d="M0 0 C2.31 0 4.62 0 7 0 C7 2.64 7 5.28 7 8 C4.69 8 2.38 8 0 8 C0 5.36 0 2.72 0 0 Z " fill="#BDBDCD" transform="translate(345,262)"/>
<path d="M0 0 C2.31 0 4.62 0 7 0 C7 2.64 7 5.28 7 8 C4.69 8 2.38 8 0 8 C0 5.36 0 2.72 0 0 Z " fill="#101010" transform="translate(285,262)"/>
<path d="M0 0 C2.31 0 4.62 0 7 0 C7 2.64 7 5.28 7 8 C4.69 8 2.38 8 0 8 C0 5.36 0 2.72 0 0 Z " fill="#101010" transform="translate(240,262)"/>
<path d="M0 0 C2.31 0 4.62 0 7 0 C7 2.64 7 5.28 7 8 C4.69 8 2.38 8 0 8 C0 5.36 0 2.72 0 0 Z " fill="#738383" transform="translate(180,262)"/>
<path d="M0 0 C2.64 0 5.28 0 8 0 C8 2.31 8 4.62 8 7 C5.36 7 2.72 7 0 7 C0 4.69 0 2.38 0 0 Z " fill="#101010" transform="translate(247,255)"/>
<path d="M0 0 C2.31 0 4.62 0 7 0 C7 2.64 7 5.28 7 8 C4.69 8 2.38 8 0 8 C0 5.36 0 2.72 0 0 Z " fill="#626283" transform="translate(330,247)"/>
<path d="M0 0 C2.31 0 4.62 0 7 0 C7 2.64 7 5.28 7 8 C4.69 8 2.38 8 0 8 C0 5.36 0 2.72 0 0 Z " fill="#626283" transform="translate(135,247)"/>
<path d="M0 0 C2.64 0 5.28 0 8 0 C8 2.31 8 4.62 8 7 C5.36 7 2.72 7 0 7 C0 4.69 0 2.38 0 0 Z " fill="#9494AC" transform="translate(412,240)"/>
<path d="M0 0 C2.64 0 5.28 0 8 0 C8 2.31 8 4.62 8 7 C5.36 7 2.72 7 0 7 C0 4.69 0 2.38 0 0 Z " fill="#94A4A4" transform="translate(232,240)"/>
<path d="M0 0 C2.64 0 5.28 0 8 0 C8 2.31 8 4.62 8 7 C5.36 7 2.72 7 0 7 C0 4.69 0 2.38 0 0 Z " fill="#9494AC" transform="translate(142,240)"/>
<path d="M0 0 C2.31 0 4.62 0 7 0 C7 2.64 7 5.28 7 8 C4.69 8 2.38 8 0 8 C0 5.36 0 2.72 0 0 Z " fill="#FFFFFF" transform="translate(225,232)"/>
<path d="M0 0 C2.64 0 5.28 0 8 0 C8 2.31 8 4.62 8 7 C5.36 7 2.72 7 0 7 C0 4.69 0 2.38 0 0 Z " fill="#DEDEEE" transform="translate(352,225)"/>
<path d="M0 0 C2.64 0 5.28 0 8 0 C8 2.31 8 4.62 8 7 C5.36 7 2.72 7 0 7 C0 4.69 0 2.38 0 0 Z " fill="#526262" transform="translate(247,225)"/>
<path d="M0 0 C2.64 0 5.28 0 8 0 C8 2.31 8 4.62 8 7 C5.36 7 2.72 7 0 7 C0 4.69 0 2.38 0 0 Z " fill="#FFFFFF" transform="translate(172,225)"/>
<path d="M0 0 C2.64 0 5.28 0 8 0 C8 2.31 8 4.62 8 7 C5.36 7 2.72 7 0 7 C0 4.69 0 2.38 0 0 Z " fill="#626283" transform="translate(157,225)"/>
<path d="M0 0 C2.31 0 4.62 0 7 0 C7 2.64 7 5.28 7 8 C4.69 8 2.38 8 0 8 C0 5.36 0 2.72 0 0 Z " fill="#BDBDCD" transform="translate(360,217)"/>
<path d="M0 0 C2.31 0 4.62 0 7 0 C7 2.64 7 5.28 7 8 C4.69 8 2.38 8 0 8 C0 5.36 0 2.72 0 0 Z " fill="#101010" transform="translate(240,217)"/>
<path d="M0 0 C2.31 0 4.62 0 7 0 C7 2.64 7 5.28 7 8 C4.69 8 2.38 8 0 8 C0 5.36 0 2.72 0 0 Z " fill="#9494AC" transform="translate(210,217)"/>
<path d="M0 0 C2.64 0 5.28 0 8 0 C8 2.31 8 4.62 8 7 C5.36 7 2.72 7 0 7 C0 4.69 0 2.38 0 0 Z " fill="#9494AC" transform="translate(307,210)"/>
<path d="M0 0 C2.64 0 5.28 0 8 0 C8 2.31 8 4.62 8 7 C5.36 7 2.72 7 0 7 C0 4.69 0 2.38 0 0 Z " fill="#101010" transform="translate(232,210)"/>
<path d="M0 0 C2.31 0 4.62 0 7 0 C7 2.64 7 5.28 7 8 C4.69 8 2.38 8 0 8 C0 5.36 0 2.72 0 0 Z " fill="#DEDEEE" transform="translate(165,202)"/>
<path d="M0 0 C2.64 0 5.28 0 8 0 C8 2.31 8 4.62 8 7 C5.36 7 2.72 7 0 7 C0 4.69 0 2.38 0 0 Z " fill="#94A4A4" transform="translate(202,195)"/>
<path d="M0 0 C2.64 0 5.28 0 8 0 C8 2.31 8 4.62 8 7 C5.36 7 2.72 7 0 7 C0 4.69 0 2.38 0 0 Z " fill="#BDBDCD" transform="translate(157,195)"/>
<path d="M0 0 C2.64 0 5.28 0 8 0 C8 2.31 8 4.62 8 7 C5.36 7 2.72 7 0 7 C0 4.69 0 2.38 0 0 Z " fill="#293939" transform="translate(142,195)"/>
<path d="M0 0 C2.31 0 4.62 0 7 0 C7 2.64 7 5.28 7 8 C4.69 8 2.38 8 0 8 C0 5.36 0 2.72 0 0 Z " fill="#293939" transform="translate(135,187)"/>
<path d="M0 0 C2.31 0 4.62 0 7 0 C7 2.64 7 5.28 7 8 C4.69 8 2.38 8 0 8 C0 5.36 0 2.72 0 0 Z " fill="#526262" transform="translate(120,187)"/>
<path d="M0 0 C2.31 0 4.62 0 7 0 C7 2.64 7 5.28 7 8 C4.69 8 2.38 8 0 8 C0 5.36 0 2.72 0 0 Z " fill="#293939" transform="translate(435,172)"/>
<path d="M0 0 C2.64 0 5.28 0 8 0 C8 2.31 8 4.62 8 7 C5.36 7 2.72 7 0 7 C0 4.69 0 2.38 0 0 Z " fill="#626283" transform="translate(292,165)"/>
<path d="M0 0 C2.64 0 5.28 0 8 0 C8 2.31 8 4.62 8 7 C5.36 7 2.72 7 0 7 C0 4.69 0 2.38 0 0 Z " fill="#9494AC" transform="translate(157,150)"/>
<path d="M0 0 C2.31 0 4.62 0 7 0 C7 2.64 7 5.28 7 8 C4.69 8 2.38 8 0 8 C0 5.36 0 2.72 0 0 Z " fill="#9494AC" transform="translate(165,142)"/>
<path d="M0 0 C2.31 0 4.62 0 7 0 C7 2.64 7 5.28 7 8 C4.69 8 2.38 8 0 8 C0 5.36 0 2.72 0 0 Z " fill="#626283" transform="translate(255,127)"/>
<path d="M0 0 C2.64 0 5.28 0 8 0 C8 2.31 8 4.62 8 7 C5.36 7 2.72 7 0 7 C0 4.69 0 2.38 0 0 Z " fill="#293939" transform="translate(412,120)"/>
<path d="M0 0 C2.64 0 5.28 0 8 0 C8 2.31 8 4.62 8 7 C5.36 7 2.72 7 0 7 C0 4.69 0 2.38 0 0 Z " fill="#526262" transform="translate(142,120)"/>
<path d="M0 0 C2.31 0 4.62 0 7 0 C7 2.64 7 5.28 7 8 C4.69 8 2.38 8 0 8 C0 5.36 0 2.72 0 0 Z " fill="#526262" transform="translate(420,112)"/>
<path d="M0 0 C2.64 0 5.28 0 8 0 C8 2.31 8 4.62 8 7 C5.36 7 2.72 7 0 7 C0 4.69 0 2.38 0 0 Z " fill="#293939" transform="translate(472,105)"/>
<path d="M0 0 C2.64 0 5.28 0 8 0 C8 2.31 8 4.62 8 7 C5.36 7 2.72 7 0 7 C0 4.69 0 2.38 0 0 Z " fill="#526262" transform="translate(427,105)"/>
<path d="M0 0 C2.64 0 5.28 0 8 0 C8 2.31 8 4.62 8 7 C5.36 7 2.72 7 0 7 C0 4.69 0 2.38 0 0 Z " fill="#526262" transform="translate(157,105)"/>
<path d="M0 0 C2.31 0 4.62 0 7 0 C7 2.64 7 5.28 7 8 C4.69 8 2.38 8 0 8 C0 5.36 0 2.72 0 0 Z " fill="#293939" transform="translate(480,97)"/>
<path d="M0 0 C2.31 0 4.62 0 7 0 C7 2.64 7 5.28 7 8 C4.69 8 2.38 8 0 8 C0 5.36 0 2.72 0 0 Z " fill="#526262" transform="translate(435,97)"/>
<path d="M0 0 C2.31 0 4.62 0 7 0 C7 2.64 7 5.28 7 8 C4.69 8 2.38 8 0 8 C0 5.36 0 2.72 0 0 Z " fill="#101010" transform="translate(180,97)"/>
<path d="M0 0 C2.64 0 5.28 0 8 0 C8 2.31 8 4.62 8 7 C5.36 7 2.72 7 0 7 C0 4.69 0 2.38 0 0 Z " fill="#293939" transform="translate(487,90)"/>
<path d="M0 0 C2.64 0 5.28 0 8 0 C8 2.31 8 4.62 8 7 C5.36 7 2.72 7 0 7 C0 4.69 0 2.38 0 0 Z " fill="#526262" transform="translate(442,90)"/>
<path d="M0 0 C2.64 0 5.28 0 8 0 C8 2.31 8 4.62 8 7 C5.36 7 2.72 7 0 7 C0 4.69 0 2.38 0 0 Z " fill="#101010" transform="translate(202,90)"/>
<path d="M0 0 C2.31 0 4.62 0 7 0 C7 2.64 7 5.28 7 8 C4.69 8 2.38 8 0 8 C0 5.36 0 2.72 0 0 Z " fill="#293939" transform="translate(495,82)"/>
<path d="M0 0 C2.31 0 4.62 0 7 0 C7 2.64 7 5.28 7 8 C4.69 8 2.38 8 0 8 C0 5.36 0 2.72 0 0 Z " fill="#101010" transform="translate(225,82)"/>
<path d="M0 0 C2.31 0 4.62 0 7 0 C7 2.64 7 5.28 7 8 C4.69 8 2.38 8 0 8 C0 5.36 0 2.72 0 0 Z " fill="#293939" transform="translate(270,67)"/>
<path d="M0 0 C2.31 0 4.62 0 7 0 C7 2.31 7 4.62 7 7 C4.69 7 2.38 7 0 7 C0 4.69 0 2.38 0 0 Z " fill="#101010" transform="translate(255,525)"/>
<path d="M0 0 C2.31 0 4.62 0 7 0 C7 2.31 7 4.62 7 7 C4.69 7 2.38 7 0 7 C0 4.69 0 2.38 0 0 Z " fill="#526262" transform="translate(270,510)"/>
<path d="M0 0 C2.31 0 4.62 0 7 0 C7 2.31 7 4.62 7 7 C4.69 7 2.38 7 0 7 C0 4.69 0 2.38 0 0 Z " fill="#738383" transform="translate(300,495)"/>
<path d="M0 0 C2.31 0 4.62 0 7 0 C7 2.31 7 4.62 7 7 C4.69 7 2.38 7 0 7 C0 4.69 0 2.38 0 0 Z " fill="#94A4A4" transform="translate(240,495)"/>
<path d="M0 0 C2.31 0 4.62 0 7 0 C7 2.31 7 4.62 7 7 C4.69 7 2.38 7 0 7 C0 4.69 0 2.38 0 0 Z " fill="#626283" transform="translate(225,480)"/>
<path d="M0 0 C2.31 0 4.62 0 7 0 C7 2.31 7 4.62 7 7 C4.69 7 2.38 7 0 7 C0 4.69 0 2.38 0 0 Z " fill="#626283" transform="translate(240,465)"/>
<path d="M0 0 C2.31 0 4.62 0 7 0 C7 2.31 7 4.62 7 7 C4.69 7 2.38 7 0 7 C0 4.69 0 2.38 0 0 Z " fill="#BDBDCD" transform="translate(300,435)"/>
<path d="M0 0 C2.31 0 4.62 0 7 0 C7 2.31 7 4.62 7 7 C4.69 7 2.38 7 0 7 C0 4.69 0 2.38 0 0 Z " fill="#101010" transform="translate(330,420)"/>
<path d="M0 0 C2.31 0 4.62 0 7 0 C7 2.31 7 4.62 7 7 C4.69 7 2.38 7 0 7 C0 4.69 0 2.38 0 0 Z " fill="#526262" transform="translate(180,420)"/>
<path d="M0 0 C2.31 0 4.62 0 7 0 C7 2.31 7 4.62 7 7 C4.69 7 2.38 7 0 7 C0 4.69 0 2.38 0 0 Z " fill="#738383" transform="translate(150,420)"/>
<path d="M0 0 C2.31 0 4.62 0 7 0 C7 2.31 7 4.62 7 7 C4.69 7 2.38 7 0 7 C0 4.69 0 2.38 0 0 Z " fill="#738383" transform="translate(465,390)"/>
<path d="M0 0 C2.31 0 4.62 0 7 0 C7 2.31 7 4.62 7 7 C4.69 7 2.38 7 0 7 C0 4.69 0 2.38 0 0 Z " fill="#9494AC" transform="translate(450,390)"/>
<path d="M0 0 C2.31 0 4.62 0 7 0 C7 2.31 7 4.62 7 7 C4.69 7 2.38 7 0 7 C0 4.69 0 2.38 0 0 Z " fill="#DEDEEE" transform="translate(285,390)"/>
<path d="M0 0 C2.31 0 4.62 0 7 0 C7 2.31 7 4.62 7 7 C4.69 7 2.38 7 0 7 C0 4.69 0 2.38 0 0 Z " fill="#9494AC" transform="translate(240,390)"/>
<path d="M0 0 C2.31 0 4.62 0 7 0 C7 2.31 7 4.62 7 7 C4.69 7 2.38 7 0 7 C0 4.69 0 2.38 0 0 Z " fill="#101010" transform="translate(180,390)"/>
<path d="M0 0 C2.31 0 4.62 0 7 0 C7 2.31 7 4.62 7 7 C4.69 7 2.38 7 0 7 C0 4.69 0 2.38 0 0 Z " fill="#626283" transform="translate(420,375)"/>
<path d="M0 0 C2.31 0 4.62 0 7 0 C7 2.31 7 4.62 7 7 C4.69 7 2.38 7 0 7 C0 4.69 0 2.38 0 0 Z " fill="#101010" transform="translate(330,375)"/>
<path d="M0 0 C2.31 0 4.62 0 7 0 C7 2.31 7 4.62 7 7 C4.69 7 2.38 7 0 7 C0 4.69 0 2.38 0 0 Z " fill="#626283" transform="translate(315,375)"/>
<path d="M0 0 C2.31 0 4.62 0 7 0 C7 2.31 7 4.62 7 7 C4.69 7 2.38 7 0 7 C0 4.69 0 2.38 0 0 Z " fill="#626283" transform="translate(330,360)"/>
<path d="M0 0 C2.31 0 4.62 0 7 0 C7 2.31 7 4.62 7 7 C4.69 7 2.38 7 0 7 C0 4.69 0 2.38 0 0 Z " fill="#9494AC" transform="translate(150,360)"/>
<path d="M0 0 C2.31 0 4.62 0 7 0 C7 2.31 7 4.62 7 7 C4.69 7 2.38 7 0 7 C0 4.69 0 2.38 0 0 Z " fill="#9494AC" transform="translate(165,345)"/>
<path d="M0 0 C2.31 0 4.62 0 7 0 C7 2.31 7 4.62 7 7 C4.69 7 2.38 7 0 7 C0 4.69 0 2.38 0 0 Z " fill="#101010" transform="translate(345,330)"/>
<path d="M0 0 C2.31 0 4.62 0 7 0 C7 2.31 7 4.62 7 7 C4.69 7 2.38 7 0 7 C0 4.69 0 2.38 0 0 Z " fill="#9494AC" transform="translate(165,315)"/>
<path d="M0 0 C2.31 0 4.62 0 7 0 C7 2.31 7 4.62 7 7 C4.69 7 2.38 7 0 7 C0 4.69 0 2.38 0 0 Z " fill="#DEDEEE" transform="translate(195,300)"/>
<path d="M0 0 C2.31 0 4.62 0 7 0 C7 2.31 7 4.62 7 7 C4.69 7 2.38 7 0 7 C0 4.69 0 2.38 0 0 Z " fill="#293939" transform="translate(180,270)"/>
<path d="M0 0 C2.31 0 4.62 0 7 0 C7 2.31 7 4.62 7 7 C4.69 7 2.38 7 0 7 C0 4.69 0 2.38 0 0 Z " fill="#9494AC" transform="translate(120,270)"/>
<path d="M0 0 C2.31 0 4.62 0 7 0 C7 2.31 7 4.62 7 7 C4.69 7 2.38 7 0 7 C0 4.69 0 2.38 0 0 Z " fill="#626283" transform="translate(285,255)"/>
<path d="M0 0 C2.31 0 4.62 0 7 0 C7 2.31 7 4.62 7 7 C4.69 7 2.38 7 0 7 C0 4.69 0 2.38 0 0 Z " fill="#526262" transform="translate(240,255)"/>
<path d="M0 0 C2.31 0 4.62 0 7 0 C7 2.31 7 4.62 7 7 C4.69 7 2.38 7 0 7 C0 4.69 0 2.38 0 0 Z " fill="#526262" transform="translate(165,255)"/>
<path d="M0 0 C2.31 0 4.62 0 7 0 C7 2.31 7 4.62 7 7 C4.69 7 2.38 7 0 7 C0 4.69 0 2.38 0 0 Z " fill="#BDBDCD" transform="translate(150,240)"/>
<path d="M0 0 C2.31 0 4.62 0 7 0 C7 2.31 7 4.62 7 7 C4.69 7 2.38 7 0 7 C0 4.69 0 2.38 0 0 Z " fill="#626283" transform="translate(405,225)"/>
<path d="M0 0 C2.31 0 4.62 0 7 0 C7 2.31 7 4.62 7 7 C4.69 7 2.38 7 0 7 C0 4.69 0 2.38 0 0 Z " fill="#101010" transform="translate(300,225)"/>
<path d="M0 0 C2.31 0 4.62 0 7 0 C7 2.31 7 4.62 7 7 C4.69 7 2.38 7 0 7 C0 4.69 0 2.38 0 0 Z " fill="#526262" transform="translate(210,225)"/>
<path d="M0 0 C2.31 0 4.62 0 7 0 C7 2.31 7 4.62 7 7 C4.69 7 2.38 7 0 7 C0 4.69 0 2.38 0 0 Z " fill="#CD2920" transform="translate(165,225)"/>
<path d="M0 0 C2.31 0 4.62 0 7 0 C7 2.31 7 4.62 7 7 C4.69 7 2.38 7 0 7 C0 4.69 0 2.38 0 0 Z " fill="#FFFFFF" transform="translate(315,210)"/>
<path d="M0 0 C2.31 0 4.62 0 7 0 C7 2.31 7 4.62 7 7 C4.69 7 2.38 7 0 7 C0 4.69 0 2.38 0 0 Z " fill="#9494AC" transform="translate(240,210)"/>
<path d="M0 0 C2.31 0 4.62 0 7 0 C7 2.31 7 4.62 7 7 C4.69 7 2.38 7 0 7 C0 4.69 0 2.38 0 0 Z " fill="#9494AC" transform="translate(225,210)"/>
<path d="M0 0 C2.31 0 4.62 0 7 0 C7 2.31 7 4.62 7 7 C4.69 7 2.38 7 0 7 C0 4.69 0 2.38 0 0 Z " fill="#293939" transform="translate(405,195)"/>
<path d="M0 0 C2.31 0 4.62 0 7 0 C7 2.31 7 4.62 7 7 C4.69 7 2.38 7 0 7 C0 4.69 0 2.38 0 0 Z " fill="#101010" transform="translate(105,195)"/>
<path d="M0 0 C2.31 0 4.62 0 7 0 C7 2.31 7 4.62 7 7 C4.69 7 2.38 7 0 7 C0 4.69 0 2.38 0 0 Z " fill="#293939" transform="translate(420,180)"/>
<path d="M0 0 C2.31 0 4.62 0 7 0 C7 2.31 7 4.62 7 7 C4.69 7 2.38 7 0 7 C0 4.69 0 2.38 0 0 Z " fill="#626283" transform="translate(285,150)"/>
<path d="M0 0 C2.31 0 4.62 0 7 0 C7 2.31 7 4.62 7 7 C4.69 7 2.38 7 0 7 C0 4.69 0 2.38 0 0 Z " fill="#626283" transform="translate(270,135)"/>
<path d="M0 0 C2.31 0 4.62 0 7 0 C7 2.31 7 4.62 7 7 C4.69 7 2.38 7 0 7 C0 4.69 0 2.38 0 0 Z " fill="#101010" transform="translate(150,120)"/>
<path d="M0 0 C2.31 0 4.62 0 7 0 C7 2.31 7 4.62 7 7 C4.69 7 2.38 7 0 7 C0 4.69 0 2.38 0 0 Z " fill="#101010" transform="translate(165,105)"/>
<path d="M0 0 C2.31 0 4.62 0 7 0 C7 2.31 7 4.62 7 7 C4.69 7 2.38 7 0 7 C0 4.69 0 2.38 0 0 Z " fill="#526262" transform="translate(120,105)"/>
<path d="M0 0 C2.31 0 4.62 0 7 0 C7 2.31 7 4.62 7 7 C4.69 7 2.38 7 0 7 C0 4.69 0 2.38 0 0 Z " fill="#526262" transform="translate(135,90)"/>
</svg>
